<?xml version="1.0" encoding="UTF-8" standalone="no"?>
<!-- Created with Inkscape (http://www.inkscape.org/) -->

<svg
   width="420mm"
   height="297mm"
   viewBox="0 0 1587.4016 1122.5197"
   version="1.1"
   id="svg1"
   xml:space="preserve"
   inkscape:version="1.4.2 (ebf0e940d0, 2025-05-08)"
   sodipodi:docname="control_template.svg"
   xmlns:inkscape="http://www.inkscape.org/namespaces/inkscape"
   xmlns:sodipodi="http://sodipodi.sourceforge.net/DTD/sodipodi-0.dtd"
   xmlns="http://www.w3.org/2000/svg"
   xmlns:svg="http://www.w3.org/2000/svg"><sodipodi:namedview
     id="namedview1"
     pagecolor="#ffffff"
     bordercolor="#000000"
     borderopacity="0.24705882"
     inkscape:showpageshadow="2"
     inkscape:pageopacity="0.0"
     inkscape:pagecheckerboard="0"
     inkscape:deskcolor="#d1d1d1"
     inkscape:document-units="mm"
     inkscape:zoom="0.52034789"
     inkscape:cx="709.14095"
     inkscape:cy="539.06243"
     inkscape:window-width="1920"
     inkscape:window-height="1003"
     inkscape:window-x="0"
     inkscape:window-y="0"
     inkscape:window-maximized="1"
     inkscape:current-layer="layer2" /><defs
     id="defs1" /><g
     inkscape:label="Layer 1"
     inkscape:groupmode="layer"
     id="layer1" /><g
     inkscape:groupmode="layer"
     id="layer2"
     inkscape:label="Markers"><path
       id="rect1"
       style="fill:#008080"
       d="m 113.38524,893.85749 -1.10938,-0.055 -1.10156,-0.1621 -1.08008,-0.2714 -1.04687,-0.375 -1.00586,-0.4747 -0.95508,-0.5722 -0.89258,-0.6621 -0.82422,-0.7481 -0.74804,-0.8242 -0.66211,-0.8945 -0.57422,-0.9532 -0.47656,-1.0078 -0.37305,-1.0468 -0.26953,-1.0782 -0.16602,-1.1015 -0.0527,-1.1114 0.0527,-1.1113 0.16602,-1.1015 0.26953,-1.0782 0.37305,-1.0488 0.47656,-1.0059 0.57422,-0.9531 0.66211,-0.8945 0.74804,-0.8242 0.82422,-0.7481 0.89258,-0.6621 0.95508,-0.5723 1.00586,-0.4746 1.04687,-0.375 1.08008,-0.2715 1.10156,-0.164 1.10938,-0.053 1.11133,0.053 1.09961,0.164 1.08203,0.2715 1.04687,0.375 1.00586,0.4746 0.95508,0.5723 0.89258,0.6621 0.82422,0.7481 0.74804,0.8242 0.66211,0.8945 0.57422,0.9531 0.47656,1.0059 0.37305,1.0488 0.26953,1.0782 0.16602,1.1015 0.0527,1.1113 -0.0527,1.1114 -0.16602,1.1015 -0.26953,1.0782 -0.37305,1.0468 -0.47656,1.0078 -0.57422,0.9532 -0.66211,0.8945 -0.74804,0.8242 -0.82422,0.7481 -0.89258,0.6621 -0.95508,0.5722 -1.00586,0.4747 -1.04687,0.375 -1.08203,0.2714 -1.09961,0.1621 z m 680.31638,0 -1.1113,-0.055 -1.1016,-0.1621 -1.0781,-0.2714 -1.0489,-0.375 -1.0058,-0.4747 -0.9531,-0.5722 -0.8946,-0.6621 -0.8242,-0.7481 -0.748,-0.8242 -0.6621,-0.8945 -0.5723,-0.9532 -0.4766,-1.0078 -0.373,-1.0468 -0.2715,-1.0782 -0.1641,-1.1015 -0.055,-1.1114 0.055,-1.1113 0.1641,-1.1015 0.2715,-1.0782 0.373,-1.0488 0.4766,-1.0059 0.5723,-0.9531 0.6621,-0.8945 0.748,-0.8242 0.8242,-0.7481 0.8946,-0.6621 0.9531,-0.5723 1.0058,-0.4746 1.0489,-0.375 1.0781,-0.2715 1.1016,-0.164 1.1113,-0.053 1.1113,0.053 1.0996,0.164 1.0801,0.2715 1.0488,0.375 1.0059,0.4746 0.9531,0.5723 0.8945,0.6621 0.8243,0.7481 0.748,0.8242 0.6621,0.8945 0.5723,0.9531 0.4746,1.0059 0.375,1.0488 0.2715,1.0782 0.1621,1.1015 0.055,1.1113 -0.055,1.1114 -0.1621,1.1015 -0.2715,1.0782 -0.375,1.0468 -0.4746,1.0078 -0.5723,0.9532 -0.6621,0.8945 -0.748,0.8242 -0.8243,0.7481 -0.8945,0.6621 -0.9531,0.5722 -1.0059,0.4747 -1.0488,0.375 -1.0801,0.2714 -1.0996,0.1621 z m 680.31448,0 -1.1114,-0.055 -1.0996,-0.1621 -1.0801,-0.2714 -1.0468,-0.375 -1.0059,-0.4747 -0.957,-0.5722 -0.8907,-0.6621 -0.8242,-0.7481 -0.75,-0.8242 -0.6601,-0.8945 -0.5742,-0.9532 -0.4766,-1.0078 -0.375,-1.0468 -0.2676,-1.0782 -0.166,-1.1015 -0.053,-1.1114 0.053,-1.1113 0.166,-1.1015 0.2676,-1.0782 0.375,-1.0488 0.4766,-1.0059 0.5742,-0.9531 0.6601,-0.8945 0.75,-0.8242 0.8242,-0.7481 0.8907,-0.6621 0.957,-0.5723 1.0059,-0.4746 1.0468,-0.375 1.0801,-0.2715 1.0996,-0.164 1.1114,-0.053 1.1113,0.053 1.0996,0.164 1.082,0.2715 1.0469,0.375 1.0039,0.4746 0.957,0.5723 0.8926,0.6621 0.8223,0.7481 0.75,0.8242 0.6601,0.8945 0.5743,0.9531 0.4765,1.0059 0.375,1.0488 0.2676,1.0782 0.166,1.1015 0.053,1.1113 -0.053,1.1114 -0.166,1.1015 -0.2676,1.0782 -0.375,1.0468 -0.4765,1.0078 -0.5743,0.9532 -0.6601,0.8945 -0.75,0.8242 -0.8223,0.7481 -0.8926,0.6621 -0.957,0.5722 -1.0039,0.4747 -1.0469,0.375 -1.082,0.2714 -1.0996,0.1621 z m -1209.44922,-128.5039 -1.48047,-0.0722 -1.46679,-0.2168 -1.43946,-0.3614 -1.39843,-0.5 -1.3418,-0.6347 -1.27149,-0.7617 -1.19335,-0.8848 -1.09571,-0.9961 -0.99804,-1.0996 -0.88477,-1.1914 -0.76367,-1.2715 -0.63477,-1.3418 -0.49804,-1.3965 -0.35938,-1.4394 -0.2207,-1.4668 -0.0703,-1.4825 0.0703,-1.4824 0.2207,-1.4668 0.35938,-1.4394 0.49804,-1.3965 0.63477,-1.3418 0.76367,-1.2735 0.88477,-1.1914 0.99804,-1.0976 1.09571,-0.9981 1.19335,-0.8828 1.27149,-0.7636 1.3418,-0.6329 1.39843,-0.5 1.43946,-0.3613 1.46679,-0.2168 1.48047,-0.0742 1.48242,0.0742 1.4668,0.2168 1.43945,0.3613 1.39844,0.5 1.3418,0.6329 1.26953,0.7636 1.19531,0.8828 1.09571,0.9981 0.99804,1.0976 0.88282,1.1914 0.76367,1.2735 0.63476,1.3418 0.5,1.3965 0.35938,1.4394 0.21875,1.4668 0.0723,1.4824 -0.0723,1.4825 -0.21875,1.4668 -0.35938,1.4394 -0.5,1.3965 -0.63476,1.3418 -0.76367,1.2715 -0.88282,1.1914 -0.99804,1.0996 -1.09571,0.9961 -1.19531,0.8848 -1.26953,0.7617 -1.3418,0.6347 -1.39844,0.5 -1.43945,0.3614 -1.4668,0.2168 z m 264.56641,0 -1.48047,-0.0722 -1.46875,-0.2168 -1.4375,-0.3614 -1.39843,-0.5 -1.33985,-0.6347 -1.27343,-0.7617 -1.19141,-0.8848 -1.09961,-0.9961 -0.99609,-1.0996 -0.88477,-1.1914 -0.76172,-1.2715 -0.63476,-1.3418 -0.5,-1.3965 -0.35938,-1.4394 -0.21875,-1.4668 -0.0723,-1.4825 0.0723,-1.4824 0.21875,-1.4668 0.35938,-1.4394 0.5,-1.3965 0.63476,-1.3418 0.76172,-1.2735 0.88477,-1.1914 0.99609,-1.0976 1.09961,-0.9981 1.19141,-0.8828 1.27343,-0.7636 1.33985,-0.6329 1.39843,-0.5 1.4375,-0.3613 1.46875,-0.2168 1.48047,-0.0742 1.48243,0.0742 1.46875,0.2168 1.4375,0.3613 1.39843,0.5 1.33985,0.6329 1.27343,0.7636 1.19141,0.8828 1.09961,0.9981 0.99609,1.0976 0.88282,1.1914 0.76367,1.2735 0.63476,1.3418 0.5,1.3965 0.35938,1.4394 0.21875,1.4668 0.0723,1.4824 -0.0723,1.4825 -0.21875,1.4668 -0.35938,1.4394 -0.5,1.3965 -0.63476,1.3418 -0.76367,1.2715 -0.88282,1.1914 -0.99609,1.0996 -1.09961,0.9961 -1.19141,0.8848 -1.27343,0.7617 -1.33985,0.6347 -1.39843,0.5 -1.4375,0.3614 -1.46875,0.2168 z m 264.56833,0 -1.4824,-0.0722 -1.4668,-0.2168 -1.4395,-0.3614 -1.3965,-0.5 -1.3418,-0.6347 -1.2734,-0.7617 -1.1914,-0.8848 -1.0996,-0.9961 -0.9961,-1.0996 -0.8828,-1.1914 -0.7637,-1.2715 -0.6328,-1.3418 -0.5,-1.3965 -0.3613,-1.4394 -0.2168,-1.4668 -0.074,-1.4825 0.074,-1.4824 0.2168,-1.4668 0.3613,-1.4394 0.5,-1.3965 0.6328,-1.3418 0.7637,-1.2735 0.8828,-1.1914 0.9961,-1.0976 1.0996,-0.9981 1.1914,-0.8828 1.2734,-0.7636 1.3418,-0.6329 1.3965,-0.5 1.4395,-0.3613 1.4668,-0.2168 1.4824,-0.0742 1.4824,0.0742 1.4668,0.2168 1.4395,0.3613 1.3964,0.5 1.3418,0.6329 1.2715,0.7636 1.1914,0.8828 1.0996,0.9981 0.9961,1.0976 0.8848,1.1914 0.7617,1.2735 0.6348,1.3418 0.5,1.3965 0.3613,1.4394 0.2168,1.4668 0.072,1.4824 -0.072,1.4825 -0.2168,1.4668 -0.3613,1.4394 -0.5,1.3965 -0.6348,1.3418 -0.7617,1.2715 -0.8848,1.1914 -0.9961,1.0996 -1.0996,0.9961 -1.1914,0.8848 -1.2715,0.7617 -1.3418,0.6347 -1.3964,0.5 -1.4395,0.3614 -1.4668,0.2168 z m 264.56638,0 -1.4824,-0.0722 -1.4668,-0.2168 -1.4395,-0.3614 -1.3965,-0.5 -1.3418,-0.6347 -1.2714,-0.7617 -1.1934,-0.8848 -1.0977,-0.9961 -0.996,-1.0996 -0.8848,-1.1914 -0.7617,-1.2715 -0.6348,-1.3418 -0.5,-1.3965 -0.3613,-1.4394 -0.2168,-1.4668 -0.072,-1.4825 0.072,-1.4824 0.2168,-1.4668 0.3613,-1.4394 0.5,-1.3965 0.6348,-1.3418 0.7617,-1.2735 0.8848,-1.1914 0.996,-1.0976 1.0977,-0.9981 1.1934,-0.8828 1.2714,-0.7636 1.3418,-0.6329 1.3965,-0.5 1.4395,-0.3613 1.4668,-0.2168 1.4824,-0.0742 1.4824,0.0742 1.4668,0.2168 1.4395,0.3613 1.3965,0.5 1.3418,0.6329 1.2714,0.7636 1.1934,0.8828 1.0977,0.9981 0.996,1.0976 0.8848,1.1914 0.7637,1.2735 0.6328,1.3418 0.5,1.3965 0.3613,1.4394 0.2168,1.4668 0.074,1.4824 -0.074,1.4825 -0.2168,1.4668 -0.3613,1.4394 -0.5,1.3965 -0.6328,1.3418 -0.7637,1.2715 -0.8848,1.1914 -0.996,1.0996 -1.0977,0.9961 -1.1934,0.8848 -1.2714,0.7617 -1.3418,0.6347 -1.3965,0.5 -1.4395,0.3614 -1.4668,0.2168 z m 264.5664,0 -1.4805,-0.0722 -1.4668,-0.2168 -1.4394,-0.3614 -1.3984,-0.5 -1.3418,-0.6347 -1.2696,-0.7617 -1.1953,-0.8848 -1.0957,-0.9961 -0.998,-1.0996 -0.8848,-1.1914 -0.7637,-1.2715 -0.6347,-1.3418 -0.4981,-1.3965 -0.3594,-1.4394 -0.2187,-1.4668 -0.072,-1.4825 0.072,-1.4824 0.2187,-1.4668 0.3594,-1.4394 0.4981,-1.3965 0.6347,-1.3418 0.7637,-1.2735 0.8848,-1.1914 0.998,-1.0976 1.0957,-0.9981 1.1953,-0.8828 1.2696,-0.7636 1.3418,-0.6329 1.3984,-0.5 1.4394,-0.3613 1.4668,-0.2168 1.4805,-0.0742 1.4824,0.0742 1.4668,0.2168 1.4395,0.3613 1.3984,0.5 1.3418,0.6329 1.2695,0.7636 1.1954,0.8828 1.0957,0.9981 0.998,1.0976 0.8848,1.1914 0.7617,1.2735 0.6367,1.3418 0.4981,1.3965 0.3593,1.4394 0.2188,1.4668 0.072,1.4824 -0.072,1.4825 -0.2188,1.4668 -0.3593,1.4394 -0.4981,1.3965 -0.6367,1.3418 -0.7617,1.2715 -0.8848,1.1914 -0.998,1.0996 -1.0957,0.9961 -1.1954,0.8848 -1.2695,0.7617 -1.3418,0.6347 -1.3984,0.5 -1.4395,0.3614 -1.4668,0.2168 z M 264.56688,538.58213 l -1.48047,-0.0723 -1.46679,-0.2168 -1.43946,-0.36132 -1.39843,-0.5 -1.3418,-0.63477 -1.27149,-0.76172 -1.19335,-0.88476 -1.09571,-0.9961 -0.99804,-1.09961 -0.88477,-1.1914 -0.76367,-1.27149 -0.63477,-1.34179 -0.49804,-1.39649 -0.35938,-1.43945 -0.2207,-1.46875 -0.0703,-1.48047 0.0703,-1.48242 0.2207,-1.4668 0.35938,-1.43945 0.49804,-1.39649 0.63477,-1.34179 0.76367,-1.27344 0.88477,-1.19141 0.99804,-1.09765 1.09571,-0.99805 1.19335,-0.88281 1.27149,-0.76368 1.3418,-0.63281 1.39843,-0.5 1.43946,-0.36133 1.46679,-0.21679 1.48047,-0.0742 1.48242,0.0742 1.4668,0.21679 1.43945,0.36133 1.39844,0.5 1.3418,0.63281 1.26953,0.76368 1.19531,0.88281 1.09571,0.99805 0.99804,1.09765 0.88282,1.19141 0.76367,1.27344 0.63476,1.34179 0.5,1.39649 0.35938,1.43945 0.21875,1.4668 0.0723,1.48242 -0.0723,1.48047 -0.21875,1.46875 -0.35938,1.43945 -0.5,1.39649 -0.63476,1.34179 -0.76367,1.27149 -0.88282,1.1914 -0.99804,1.09961 -1.09571,0.9961 -1.19531,0.88476 -1.26953,0.76172 -1.3418,0.63477 -1.39844,0.5 -1.43945,0.36132 -1.4668,0.2168 z m 264.56641,0 -1.48047,-0.0723 -1.46875,-0.2168 -1.4375,-0.36132 -1.39843,-0.5 -1.33985,-0.63477 -1.27343,-0.76172 -1.19141,-0.88476 -1.09961,-0.9961 -0.99609,-1.09961 -0.88477,-1.1914 -0.76172,-1.27149 -0.63476,-1.34179 -0.5,-1.39649 -0.35938,-1.43945 -0.21875,-1.46875 -0.0723,-1.48047 0.0723,-1.48242 0.21875,-1.4668 0.35938,-1.43945 0.5,-1.39649 0.63476,-1.34179 0.76172,-1.27344 0.88477,-1.19141 0.99609,-1.09765 1.09961,-0.99805 1.19141,-0.88281 1.27343,-0.76368 1.33985,-0.63281 1.39843,-0.5 1.4375,-0.36133 1.46875,-0.21679 1.48047,-0.0742 1.48243,0.0742 1.46875,0.21679 1.4375,0.36133 1.39843,0.5 1.33985,0.63281 1.27343,0.76368 1.19141,0.88281 1.09961,0.99805 0.99609,1.09765 0.88282,1.19141 0.76367,1.27344 0.63476,1.34179 0.5,1.39649 0.35938,1.43945 0.21875,1.4668 0.0723,1.48242 -0.0723,1.48047 -0.21875,1.46875 -0.35938,1.43945 -0.5,1.39649 -0.63476,1.34179 -0.76367,1.27149 -0.88282,1.1914 -0.99609,1.09961 -1.09961,0.9961 -1.19141,0.88476 -1.27343,0.76172 -1.33985,0.63477 -1.39843,0.5 -1.4375,0.36132 -1.46875,0.2168 z m 264.56833,0 -1.4824,-0.0723 -1.4668,-0.2168 -1.4395,-0.36132 -1.3965,-0.5 -1.3418,-0.63477 -1.2734,-0.76172 -1.1914,-0.88476 -1.0996,-0.9961 -0.9961,-1.09961 -0.8828,-1.1914 -0.7637,-1.27149 -0.6328,-1.34179 -0.5,-1.39649 -0.3613,-1.43945 -0.2168,-1.46875 -0.074,-1.48047 0.074,-1.48242 0.2168,-1.4668 0.3613,-1.43945 0.5,-1.39649 0.6328,-1.34179 0.7637,-1.27344 0.8828,-1.19141 0.9961,-1.09765 1.0996,-0.99805 1.1914,-0.88281 1.2734,-0.76368 1.3418,-0.63281 1.3965,-0.5 1.4395,-0.36133 1.4668,-0.21679 1.4824,-0.0742 1.4824,0.0742 1.4668,0.21679 1.4395,0.36133 1.3964,0.5 1.3418,0.63281 1.2715,0.76368 1.1914,0.88281 1.0996,0.99805 0.9961,1.09765 0.8848,1.19141 0.7617,1.27344 0.6348,1.34179 0.5,1.39649 0.3613,1.43945 0.2168,1.4668 0.072,1.48242 -0.072,1.48047 -0.2168,1.46875 -0.3613,1.43945 -0.5,1.39649 -0.6348,1.34179 -0.7617,1.27149 -0.8848,1.1914 -0.9961,1.09961 -1.0996,0.9961 -1.1914,0.88476 -1.2715,0.76172 -1.3418,0.63477 -1.3964,0.5 -1.4395,0.36132 -1.4668,0.2168 z m 264.56638,0 -1.4824,-0.0723 -1.4668,-0.2168 -1.4395,-0.36132 -1.3965,-0.5 -1.3418,-0.63477 -1.2714,-0.76172 -1.1934,-0.88476 -1.0977,-0.9961 -0.996,-1.09961 -0.8848,-1.1914 -0.7617,-1.27149 -0.6348,-1.34179 -0.5,-1.39649 -0.3613,-1.43945 -0.2168,-1.46875 -0.072,-1.48047 0.072,-1.48242 0.2168,-1.4668 0.3613,-1.43945 0.5,-1.39649 0.6348,-1.34179 0.7617,-1.27344 0.8848,-1.19141 0.996,-1.09765 1.0977,-0.99805 1.1934,-0.88281 1.2714,-0.76368 1.3418,-0.63281 1.3965,-0.5 1.4395,-0.36133 1.4668,-0.21679 1.4824,-0.0742 1.4824,0.0742 1.4668,0.21679 1.4395,0.36133 1.3965,0.5 1.3418,0.63281 1.2714,0.76368 1.1934,0.88281 1.0977,0.99805 0.996,1.09765 0.8848,1.19141 0.7637,1.27344 0.6328,1.34179 0.5,1.39649 0.3613,1.43945 0.2168,1.4668 0.074,1.48242 -0.074,1.48047 -0.2168,1.46875 -0.3613,1.43945 -0.5,1.39649 -0.6328,1.34179 -0.7637,1.27149 -0.8848,1.1914 -0.996,1.09961 -1.0977,0.9961 -1.1934,0.88476 -1.2714,0.76172 -1.3418,0.63477 -1.3965,0.5 -1.4395,0.36132 -1.4668,0.2168 z m 264.5664,0 -1.4805,-0.0723 -1.4668,-0.2168 -1.4394,-0.36132 -1.3984,-0.5 -1.3418,-0.63477 -1.2696,-0.76172 -1.1953,-0.88476 -1.0957,-0.9961 -0.998,-1.09961 -0.8848,-1.1914 -0.7637,-1.27149 -0.6347,-1.34179 -0.4981,-1.39649 -0.3594,-1.43945 -0.2187,-1.46875 -0.072,-1.48047 0.072,-1.48242 0.2187,-1.4668 0.3594,-1.43945 0.4981,-1.39649 0.6347,-1.34179 0.7637,-1.27344 0.8848,-1.19141 0.998,-1.09765 1.0957,-0.99805 1.1953,-0.88281 1.2696,-0.76368 1.3418,-0.63281 1.3984,-0.5 1.4394,-0.36133 1.4668,-0.21679 1.4805,-0.0742 1.4824,0.0742 1.4668,0.21679 1.4395,0.36133 1.3984,0.5 1.3418,0.63281 1.2695,0.76368 1.1954,0.88281 1.0957,0.99805 0.998,1.09765 0.8848,1.19141 0.7617,1.27344 0.6367,1.34179 0.4981,1.39649 0.3593,1.43945 0.2188,1.4668 0.072,1.48242 -0.072,1.48047 -0.2188,1.46875 -0.3593,1.43945 -0.4981,1.39649 -0.6367,1.34179 -0.7617,1.27149 -0.8848,1.1914 -0.998,1.09961 -1.0957,0.9961 -1.1954,0.88476 -1.2695,0.76172 -1.3418,0.63477 -1.3984,0.5 -1.4395,0.36132 -1.4668,0.2168 z M 113.38524,251.33798 l -1.10938,-0.0547 -1.10156,-0.16211 -1.08008,-0.27148 -1.04687,-0.375 -1.00586,-0.47461 -0.95508,-0.57226 -0.89258,-0.66407 -0.82422,-0.74609 -0.74804,-0.82422 -0.66211,-0.89453 -0.57422,-0.95313 -0.47656,-1.00586 -0.37305,-1.04882 -0.26953,-1.07813 -0.16602,-1.10156 -0.0527,-1.11133 0.0527,-1.11133 0.16602,-1.10156 0.26953,-1.07812 0.37305,-1.04883 0.47656,-1.00586 0.57422,-0.95313 0.66211,-0.89453 0.74804,-0.82422 0.82422,-0.74804 0.89258,-0.66211 0.95508,-0.57227 1.00586,-0.47461 1.04687,-0.375 1.08008,-0.27148 1.10156,-0.16407 1.10938,-0.0527 1.11133,0.0527 1.09961,0.16407 1.08203,0.27148 1.04687,0.375 1.00586,0.47461 0.95508,0.57227 0.89258,0.66211 0.82422,0.74804 0.74804,0.82422 0.66211,0.89453 0.57422,0.95313 0.47656,1.00586 0.37305,1.04883 0.26953,1.07812 0.16602,1.10156 0.0527,1.11133 -0.0527,1.11133 -0.16602,1.10156 -0.26953,1.07813 -0.37305,1.04882 -0.47656,1.00586 -0.57422,0.95313 -0.66211,0.89453 -0.74804,0.82422 -0.82422,0.74609 -0.89258,0.66407 -0.95508,0.57226 -1.00586,0.47461 -1.04687,0.375 -1.08203,0.27148 -1.09961,0.16211 z m 680.31638,0 -1.1113,-0.0547 -1.1016,-0.16211 -1.0781,-0.27148 -1.0489,-0.375 -1.0058,-0.47461 -0.9531,-0.57226 -0.8946,-0.66407 -0.8242,-0.74609 -0.748,-0.82422 -0.6621,-0.89453 -0.5723,-0.95313 -0.4766,-1.00586 -0.373,-1.04882 -0.2715,-1.07813 -0.1641,-1.10156 -0.055,-1.11133 0.055,-1.11133 0.1641,-1.10156 0.2715,-1.07812 0.373,-1.04883 0.4766,-1.00586 0.5723,-0.95313 0.6621,-0.89453 0.748,-0.82422 0.8242,-0.74804 0.8946,-0.66211 0.9531,-0.57227 1.0058,-0.47461 1.0489,-0.375 1.0781,-0.27148 1.1016,-0.16407 1.1113,-0.0527 1.1113,0.0527 1.0996,0.16407 1.0801,0.27148 1.0488,0.375 1.0059,0.47461 0.9531,0.57227 0.8945,0.66211 0.8243,0.74804 0.748,0.82422 0.6621,0.89453 0.5723,0.95313 0.4746,1.00586 0.375,1.04883 0.2715,1.07812 0.1621,1.10156 0.055,1.11133 -0.055,1.11133 -0.1621,1.10156 -0.2715,1.07813 -0.375,1.04882 -0.4746,1.00586 -0.5723,0.95313 -0.6621,0.89453 -0.748,0.82422 -0.8243,0.74609 -0.8945,0.66407 -0.9531,0.57226 -1.0059,0.47461 -1.0488,0.375 -1.0801,0.27148 -1.0996,0.16211 z m 680.31448,0 -1.1114,-0.0547 -1.0996,-0.16211 -1.0801,-0.27148 -1.0468,-0.375 -1.0059,-0.47461 -0.957,-0.57226 -0.8907,-0.66407 -0.8242,-0.74609 -0.75,-0.82422 -0.6601,-0.89453 -0.5742,-0.95313 -0.4766,-1.00586 -0.375,-1.04882 -0.2676,-1.07813 -0.166,-1.10156 -0.053,-1.11133 0.053,-1.11133 0.166,-1.10156 0.2676,-1.07812 0.375,-1.04883 0.4766,-1.00586 0.5742,-0.95313 0.6601,-0.89453 0.75,-0.82422 0.8242,-0.74804 0.8907,-0.66211 0.957,-0.57227 1.0059,-0.47461 1.0468,-0.375 1.0801,-0.27148 1.0996,-0.16407 1.1114,-0.0527 1.1113,0.0527 1.0996,0.16407 1.082,0.27148 1.0469,0.375 1.0039,0.47461 0.957,0.57227 0.8926,0.66211 0.8223,0.74804 0.75,0.82422 0.6601,0.89453 0.5743,0.95313 0.4765,1.00586 0.375,1.04883 0.2676,1.07812 0.166,1.10156 0.053,1.11133 -0.053,1.11133 -0.166,1.10156 -0.2676,1.07813 -0.375,1.04882 -0.4765,1.00586 -0.5743,0.95313 -0.6601,0.89453 -0.75,0.82422 -0.8223,0.74609 -0.8926,0.66407 -0.957,0.57226 -1.0039,0.47461 -1.0469,0.375 -1.082,0.27148 -1.0996,0.16211 z"
       inkscape:label="Holes" /><path
       d="m 102.04712,939.21262 0.0529,1.1111 0.1663,1.0999 0.26834,1.0809 0.37418,1.047 0.47622,1.0053 0.57448,0.9562 0.66142,0.892 0.74835,0.8239 0.82393,0.7484 0.89197,0.6614 0.95623,0.5745 1.00536,0.4762 1.04693,0.3742 1.08094,0.2683 1.09985,0.1663 1.11118,0.053 1.11118,-0.053 1.09984,-0.1663 1.08094,-0.2683 1.04693,-0.3742 1.00536,-0.4762 0.95622,-0.5745 0.89197,-0.6614 0.82393,-0.7484 0.74835,-0.8239 0.66142,-0.892 0.57449,-0.9562 0.47622,-1.0053 0.37417,-1.047 0.26835,-1.0809 0.1663,-1.0999 0.0529,-1.1111 -0.0529,-1.1116 -0.1663,-1.1006 -0.26835,-1.0794 -0.37417,-1.0477 -0.47622,-1.0057 -0.57449,-0.9544 -0.66142,-0.8938 -0.74835,-0.8244 -0.82393,-0.7472 -0.89197,-0.6629 -0.95622,-0.5722 -1.00536,-0.4755 -1.04693,-0.3749 -1.08094,-0.2706 -1.09984,-0.1633 -1.11118,-0.054 -1.11118,0.054 -1.09985,0.1633 -1.08094,0.2706 -1.04693,0.3749 -1.00536,0.4755 -0.95623,0.5722 -0.89197,0.6629 -0.82393,0.7472 -0.74835,0.8244 -0.66142,0.8938 -0.57448,0.9544 -0.47622,1.0057 -0.37418,1.0477 -0.26834,1.0794 -0.1663,1.1006 z m 0,-755.90556 0.0529,1.11156 0.1663,1.1006 0.26834,1.07942 0.37418,1.04769 0.47622,1.00573 0.57448,0.95433 0.66142,0.89386 0.74835,0.82431 0.82393,0.74722 0.89197,0.66293 0.95623,0.57222 1.00536,0.47546 1.04693,0.37493 1.08094,0.27061 1.09985,0.16328 1.11118,0.0544 1.11118,-0.0544 1.09984,-0.16328 1.08094,-0.27061 1.04693,-0.37493 1.00536,-0.47546 0.95622,-0.57222 0.89197,-0.66293 0.82393,-0.74722 0.74835,-0.82431 0.66142,-0.89386 0.57449,-0.95433 0.47622,-1.00573 0.37417,-1.04769 0.26835,-1.07942 0.1663,-1.1006 0.0529,-1.11156 -0.0529,-1.11118 -0.1663,-1.09984 -0.26835,-1.08095 -0.37417,-1.04693 -0.47622,-1.00535 -0.57449,-0.95622 -0.66142,-0.89197 -0.74835,-0.82394 -0.82393,-0.74834 -0.89197,-0.66142 -0.95622,-0.57449 -1.00536,-0.47622 -1.04693,-0.37417 -1.08094,-0.26835 -1.09984,-0.1663 -1.11118,-0.0529 -1.11118,0.0529 -1.09985,0.1663 -1.08094,0.26835 -1.04693,0.37417 -1.00536,0.47622 -0.95623,0.57449 -0.89197,0.66142 -0.82393,0.74834 -0.74835,0.82394 -0.66142,0.89197 -0.57448,0.95622 -0.47622,1.00535 -0.37418,1.04693 -0.26834,1.08095 -0.1663,1.09984 z m 680.31494,755.90556 0.055,1.1111 0.1633,1.0999 0.2704,1.0809 0.3748,1.047 0.4758,1.0053 0.572,0.9562 0.6629,0.892 0.7472,0.8239 0.8245,0.7484 0.8937,0.6614 0.9544,0.5745 1.0059,0.4762 1.0477,0.3742 1.0794,0.2683 1.1006,0.1663 1.1114,0.053 1.1114,-0.053 1.1007,-0.1663 1.0793,-0.2683 1.0477,-0.3742 1.0059,-0.4762 0.9544,-0.5745 0.8937,-0.6614 0.8245,-0.7484 0.7473,-0.8239 0.6628,-0.892 0.572,-0.9562 0.4758,-1.0053 0.3749,-1.047 0.2703,-1.0809 0.1633,-1.0999 0.055,-1.1111 -0.055,-1.1116 -0.1633,-1.1006 -0.2703,-1.0794 -0.3749,-1.0477 -0.4758,-1.0057 -0.572,-0.9544 -0.6628,-0.8938 -0.7473,-0.8244 -0.8245,-0.7472 -0.8937,-0.6629 -0.9544,-0.5722 -1.0059,-0.4755 -1.0477,-0.3749 -1.0793,-0.2706 -1.1007,-0.1633 -1.1114,-0.054 -1.1114,0.054 -1.1006,0.1633 -1.0794,0.2706 -1.0477,0.3749 -1.0059,0.4755 -0.9544,0.5722 -0.8937,0.6629 -0.8245,0.7472 -0.7472,0.8244 -0.6629,0.8938 -0.572,0.9544 -0.4758,1.0057 -0.3748,1.0477 -0.2704,1.0794 -0.1633,1.1006 z m 0,-755.90556 0.055,1.11156 0.1633,1.1006 0.2704,1.07942 0.3748,1.04769 0.4758,1.00573 0.572,0.95433 0.6629,0.89386 0.7472,0.82431 0.8245,0.74722 0.8937,0.66293 0.9544,0.57222 1.0059,0.47546 1.0477,0.37493 1.0794,0.27061 1.1006,0.16328 1.1114,0.0544 1.1114,-0.0544 1.1007,-0.16328 1.0793,-0.27061 1.0477,-0.37493 1.0059,-0.47546 0.9544,-0.57222 0.8937,-0.66293 0.8245,-0.74722 0.7473,-0.82431 0.6628,-0.89386 0.572,-0.95433 0.4758,-1.00573 0.3749,-1.04769 0.2703,-1.07942 0.1633,-1.1006 0.055,-1.11156 -0.055,-1.11118 -0.1632,-1.09984 -0.2704,-1.08095 -0.3749,-1.04693 -0.4757,-1.00535 -0.5721,-0.95622 -0.6628,-0.89197 -0.7473,-0.82394 -0.8244,-0.74834 -0.8938,-0.66142 -0.9544,-0.57449 -1.0059,-0.47622 -1.0477,-0.37417 -1.0793,-0.26835 -1.1007,-0.1663 -1.1114,-0.0529 -1.1113,0.0529 -1.1007,0.1663 -1.0794,0.26835 -1.0477,0.37417 -1.0058,0.47622 -0.9544,0.57449 -0.8938,0.66142 -0.8245,0.74834 -0.7472,0.82394 -0.6629,0.89197 -0.572,0.95622 -0.4758,1.00535 -0.3748,1.04693 -0.2704,1.08095 -0.1632,1.09984 z m 680.31514,755.90556 0.053,1.1111 0.1663,1.0999 0.2683,1.0809 0.3742,1.047 0.4762,1.0053 0.5745,0.9562 0.6614,0.892 0.7484,0.8239 0.8239,0.7484 0.892,0.6614 0.9562,0.5745 1.0053,0.4762 1.047,0.3742 1.0809,0.2683 1.0999,0.1663 1.1111,0.053 1.1112,-0.053 1.0999,-0.1663 1.0809,-0.2683 1.0469,-0.3742 1.0054,-0.4762 0.9562,-0.5745 0.892,-0.6614 0.8239,-0.7484 0.7484,-0.8239 0.6614,-0.892 0.5745,-0.9562 0.4762,-1.0053 0.3742,-1.047 0.2683,-1.0809 0.1663,-1.0999 0.053,-1.1111 -0.053,-1.1116 -0.1663,-1.1006 -0.2683,-1.0794 -0.3742,-1.0477 -0.4762,-1.0057 -0.5745,-0.9544 -0.6614,-0.8938 -0.7484,-0.8244 -0.8239,-0.7472 -0.892,-0.6629 -0.9562,-0.5722 -1.0054,-0.4755 -1.0469,-0.3749 -1.0809,-0.2706 -1.0999,-0.1633 -1.1112,-0.054 -1.1111,0.054 -1.0999,0.1633 -1.0809,0.2706 -1.047,0.3749 -1.0053,0.4755 -0.9562,0.5722 -0.892,0.6629 -0.8239,0.7472 -0.7484,0.8244 -0.6614,0.8938 -0.5745,0.9544 -0.4762,1.0057 -0.3742,1.0477 -0.2683,1.0794 -0.1663,1.1006 z m 0,-755.90556 0.053,1.11156 0.1663,1.1006 0.2683,1.07942 0.3742,1.04769 0.4762,1.00573 0.5745,0.95433 0.6614,0.89386 0.7484,0.82431 0.8239,0.74722 0.892,0.66293 0.9562,0.57222 1.0053,0.47546 1.047,0.37493 1.0809,0.27061 1.0999,0.16328 1.1111,0.0544 1.1112,-0.0544 1.0999,-0.16328 1.0809,-0.27061 1.0469,-0.37493 1.0054,-0.47546 0.9562,-0.57222 0.892,-0.66293 0.8239,-0.74722 0.7484,-0.82431 0.6614,-0.89386 0.5745,-0.95433 0.4762,-1.00573 0.3742,-1.04769 0.2683,-1.07942 0.1663,-1.1006 0.053,-1.11156 -0.053,-1.11118 -0.1663,-1.09984 -0.2683,-1.08095 -0.3742,-1.04693 -0.4762,-1.00535 -0.5745,-0.95622 -0.6614,-0.89197 -0.7484,-0.82394 -0.8239,-0.74834 -0.892,-0.66142 -0.9562,-0.57449 -1.0054,-0.47622 -1.0469,-0.37417 -1.0809,-0.26835 -1.0999,-0.1663 -1.1112,-0.0529 -1.1111,0.0529 -1.0999,0.1663 -1.0809,0.26835 -1.047,0.37417 -1.0053,0.47622 -0.9562,0.57449 -0.892,0.66142 -0.8239,0.74834 -0.7484,0.82394 -0.6614,0.89197 -0.5745,0.95622 -0.4762,1.00535 -0.3742,1.04693 -0.2683,1.08095 -0.1663,1.09984 z"
       stroke="#000000"
       fill="#d3d3d3"
       stroke-width="0.5"
       id="path1-1"
       style="fill:#800080"
       inkscape:label="Knobs" /></g></svg>
