<?xml version="1.0" standalone="no"?>
<!DOCTYPE svg PUBLIC "-//W3C//DTD SVG 1.1//EN" "http://www.w3.org/Graphics/SVG/1.1/DTD/svg11.dtd">
<svg width="400mm" height="240mm" viewBox="-200 -120 400 240" xmlns="http://www.w3.org/2000/svg" version="1.1">
<title>OpenSCAD Model</title>
<path d="
M -200,100 L -199.904,101.96 L -199.616,103.902 L -199.139,105.806 L -198.478,107.654 L -197.638,109.428
 L -196.629,111.111 L -195.46,112.688 L -194.142,114.142 L -192.688,115.46 L -191.111,116.629 L -189.428,117.638
 L -187.654,118.478 L -185.806,119.139 L -183.902,119.616 L -181.96,119.904 L -180,120 L 180,120
 L 181.96,119.904 L 183.902,119.616 L 185.806,119.139 L 187.654,118.478 L 189.428,117.638 L 191.111,116.629
 L 192.688,115.46 L 194.142,114.142 L 195.46,112.688 L 196.629,111.111 L 197.638,109.428 L 198.478,107.654
 L 199.139,105.806 L 199.616,103.902 L 199.904,101.96 L 200,100 L 200,-100 L 199.904,-101.96
 L 199.616,-103.902 L 199.139,-105.806 L 198.478,-107.654 L 197.638,-109.428 L 196.629,-111.111 L 195.46,-112.688
 L 194.142,-114.142 L 192.688,-115.46 L 191.111,-116.629 L 189.428,-117.638 L 187.654,-118.478 L 185.806,-119.139
 L 183.902,-119.616 L 181.96,-119.904 L 180,-120 L -180,-120 L -181.96,-119.904 L -183.902,-119.616
 L -185.806,-119.139 L -187.654,-118.478 L -189.428,-117.638 L -191.111,-116.629 L -192.688,-115.46 L -194.142,-114.142
 L -195.46,-112.688 L -196.629,-111.111 L -197.638,-109.428 L -198.478,-107.654 L -199.139,-105.806 L -199.616,-103.902
 L -199.904,-101.96 L -200,-100 z
M -183,85 L -182.986,84.7059 L -182.942,84.4147 L -182.871,84.1291 L -182.772,83.8519 L -182.646,83.5858
 L -182.494,83.3333 L -182.319,83.0968 L -182.121,82.8787 L -181.903,82.681 L -181.667,82.5056 L -181.414,82.3542
 L -181.148,82.2284 L -180.871,82.1292 L -180.585,82.0576 L -180.294,82.0144 L -180,82 L -179.706,82.0144
 L -179.415,82.0576 L -179.129,82.1292 L -178.852,82.2284 L -178.586,82.3542 L -178.333,82.5056 L -178.097,82.681
 L -177.879,82.8787 L -177.681,83.0968 L -177.506,83.3333 L -177.354,83.5858 L -177.228,83.8519 L -177.129,84.1291
 L -177.058,84.4147 L -177.014,84.7059 L -177,85 L -177.014,85.2941 L -177.058,85.5853 L -177.129,85.8709
 L -177.228,86.148 L -177.354,86.4142 L -177.506,86.6667 L -177.681,86.9032 L -177.879,87.1213 L -178.097,87.319
 L -178.333,87.4944 L -178.586,87.6458 L -178.852,87.7716 L -179.129,87.8708 L -179.415,87.9424 L -179.706,87.9856
 L -180,88 L -180.294,87.9856 L -180.585,87.9424 L -180.871,87.8708 L -181.148,87.7716 L -181.414,87.6458
 L -181.667,87.4944 L -181.903,87.319 L -182.121,87.1213 L -182.319,86.9032 L -182.494,86.6667 L -182.646,86.4142
 L -182.772,86.148 L -182.871,85.8709 L -182.942,85.5853 L -182.986,85.2941 z
M -183,-85 L -182.986,-85.2941 L -182.942,-85.5853 L -182.871,-85.8709 L -182.772,-86.148 L -182.646,-86.4142
 L -182.494,-86.6667 L -182.319,-86.9032 L -182.121,-87.1213 L -181.903,-87.319 L -181.667,-87.4944 L -181.414,-87.6458
 L -181.148,-87.7716 L -180.871,-87.8708 L -180.585,-87.9424 L -180.294,-87.9856 L -180,-88 L -179.706,-87.9856
 L -179.415,-87.9424 L -179.129,-87.8708 L -178.852,-87.7716 L -178.586,-87.6458 L -178.333,-87.4944 L -178.097,-87.319
 L -177.879,-87.1213 L -177.681,-86.9032 L -177.506,-86.6667 L -177.354,-86.4142 L -177.228,-86.148 L -177.129,-85.8709
 L -177.058,-85.5853 L -177.014,-85.2941 L -177,-85 L -177.014,-84.7059 L -177.058,-84.4147 L -177.129,-84.1291
 L -177.228,-83.8519 L -177.354,-83.5858 L -177.506,-83.3333 L -177.681,-83.0968 L -177.879,-82.8787 L -178.097,-82.681
 L -178.333,-82.5056 L -178.586,-82.3542 L -178.852,-82.2284 L -179.129,-82.1292 L -179.415,-82.0576 L -179.706,-82.0144
 L -180,-82 L -180.294,-82.0144 L -180.585,-82.0576 L -180.871,-82.1292 L -181.148,-82.2284 L -181.414,-82.3542
 L -181.667,-82.5056 L -181.903,-82.681 L -182.121,-82.8787 L -182.319,-83.0968 L -182.494,-83.3333 L -182.646,-83.5858
 L -182.772,-83.8519 L -182.871,-84.1291 L -182.942,-84.4147 L -182.986,-84.7059 z
M -144,10 L -143.981,9.60793 L -143.923,9.21964 L -143.828,8.83886 L -143.696,8.46927 L -143.528,8.11441
 L -143.326,7.77772 L -143.092,7.46243 L -142.828,7.17157 L -142.538,6.90796 L -142.222,6.67412 L -141.886,6.47231
 L -141.531,6.30448 L -141.161,6.17224 L -140.78,6.07686 L -140.392,6.01926 L -140,6 L -139.608,6.01926
 L -139.22,6.07686 L -138.839,6.17224 L -138.469,6.30448 L -138.114,6.47231 L -137.778,6.67412 L -137.462,6.90796
 L -137.172,7.17157 L -136.908,7.46243 L -136.674,7.77772 L -136.472,8.11441 L -136.304,8.46927 L -136.172,8.83886
 L -136.077,9.21964 L -136.019,9.60793 L -136,10 L -136.019,10.3921 L -136.077,10.7804 L -136.172,11.1611
 L -136.304,11.5307 L -136.472,11.8856 L -136.674,12.2223 L -136.908,12.5376 L -137.172,12.8284 L -137.462,13.092
 L -137.778,13.3259 L -138.114,13.5277 L -138.469,13.6955 L -138.839,13.8278 L -139.22,13.9231 L -139.608,13.9807
 L -140,14 L -140.392,13.9807 L -140.78,13.9231 L -141.161,13.8278 L -141.531,13.6955 L -141.886,13.5277
 L -142.222,13.3259 L -142.538,13.092 L -142.828,12.8284 L -143.092,12.5376 L -143.326,12.2223 L -143.528,11.8856
 L -143.696,11.5307 L -143.828,11.1611 L -143.923,10.7804 L -143.981,10.3921 z
M -144,-50 L -143.981,-50.3921 L -143.923,-50.7804 L -143.828,-51.1611 L -143.696,-51.5307 L -143.528,-51.8856
 L -143.326,-52.2223 L -143.092,-52.5376 L -142.828,-52.8284 L -142.538,-53.092 L -142.222,-53.3259 L -141.886,-53.5277
 L -141.531,-53.6955 L -141.161,-53.8278 L -140.78,-53.9231 L -140.392,-53.9807 L -140,-54 L -139.608,-53.9807
 L -139.22,-53.9231 L -138.839,-53.8278 L -138.469,-53.6955 L -138.114,-53.5277 L -137.778,-53.3259 L -137.462,-53.092
 L -137.172,-52.8284 L -136.908,-52.5376 L -136.674,-52.2223 L -136.472,-51.8856 L -136.304,-51.5307 L -136.172,-51.1611
 L -136.077,-50.7804 L -136.019,-50.3921 L -136,-50 L -136.019,-49.6079 L -136.077,-49.2196 L -136.172,-48.8389
 L -136.304,-48.4693 L -136.472,-48.1144 L -136.674,-47.7777 L -136.908,-47.4624 L -137.172,-47.1716 L -137.462,-46.908
 L -137.778,-46.6741 L -138.114,-46.4723 L -138.469,-46.3045 L -138.839,-46.1722 L -139.22,-46.0769 L -139.608,-46.0193
 L -140,-46 L -140.392,-46.0193 L -140.78,-46.0769 L -141.161,-46.1722 L -141.531,-46.3045 L -141.886,-46.4723
 L -142.222,-46.6741 L -142.538,-46.908 L -142.828,-47.1716 L -143.092,-47.4624 L -143.326,-47.7777 L -143.528,-48.1144
 L -143.696,-48.4693 L -143.828,-48.8389 L -143.923,-49.2196 L -143.981,-49.6079 z
M -74,10 L -73.9807,9.60793 L -73.9231,9.21964 L -73.8278,8.83886 L -73.6955,8.46927 L -73.5277,8.11441
 L -73.3259,7.77772 L -73.092,7.46243 L -72.8284,7.17157 L -72.5376,6.90796 L -72.2223,6.67412 L -71.8856,6.47231
 L -71.5307,6.30448 L -71.1611,6.17224 L -70.7804,6.07686 L -70.3921,6.01926 L -70,6 L -69.6079,6.01926
 L -69.2196,6.07686 L -68.8389,6.17224 L -68.4693,6.30448 L -68.1144,6.47231 L -67.7777,6.67412 L -67.4624,6.90796
 L -67.1716,7.17157 L -66.908,7.46243 L -66.6741,7.77772 L -66.4723,8.11441 L -66.3045,8.46927 L -66.1722,8.83886
 L -66.0769,9.21964 L -66.0193,9.60793 L -66,10 L -66.0193,10.3921 L -66.0769,10.7804 L -66.1722,11.1611
 L -66.3045,11.5307 L -66.4723,11.8856 L -66.6741,12.2223 L -66.908,12.5376 L -67.1716,12.8284 L -67.4624,13.092
 L -67.7777,13.3259 L -68.1144,13.5277 L -68.4693,13.6955 L -68.8389,13.8278 L -69.2196,13.9231 L -69.6079,13.9807
 L -70,14 L -70.3921,13.9807 L -70.7804,13.9231 L -71.1611,13.8278 L -71.5307,13.6955 L -71.8856,13.5277
 L -72.2223,13.3259 L -72.5376,13.092 L -72.8284,12.8284 L -73.092,12.5376 L -73.3259,12.2223 L -73.5277,11.8856
 L -73.6955,11.5307 L -73.8278,11.1611 L -73.9231,10.7804 L -73.9807,10.3921 z
M -74,-50 L -73.9807,-50.3921 L -73.9231,-50.7804 L -73.8278,-51.1611 L -73.6955,-51.5307 L -73.5277,-51.8856
 L -73.3259,-52.2223 L -73.092,-52.5376 L -72.8284,-52.8284 L -72.5376,-53.092 L -72.2223,-53.3259 L -71.8856,-53.5277
 L -71.5307,-53.6955 L -71.1611,-53.8278 L -70.7804,-53.9231 L -70.3921,-53.9807 L -70,-54 L -69.6079,-53.9807
 L -69.2196,-53.9231 L -68.8389,-53.8278 L -68.4693,-53.6955 L -68.1144,-53.5277 L -67.7777,-53.3259 L -67.4624,-53.092
 L -67.1716,-52.8284 L -66.908,-52.5376 L -66.6741,-52.2223 L -66.4723,-51.8856 L -66.3045,-51.5307 L -66.1722,-51.1611
 L -66.0769,-50.7804 L -66.0193,-50.3921 L -66,-50 L -66.0193,-49.6079 L -66.0769,-49.2196 L -66.1722,-48.8389
 L -66.3045,-48.4693 L -66.4723,-48.1144 L -66.6741,-47.7777 L -66.908,-47.4624 L -67.1716,-47.1716 L -67.4624,-46.908
 L -67.7777,-46.6741 L -68.1144,-46.4723 L -68.4693,-46.3045 L -68.8389,-46.1722 L -69.2196,-46.0769 L -69.6079,-46.0193
 L -70,-46 L -70.3921,-46.0193 L -70.7804,-46.0769 L -71.1611,-46.1722 L -71.5307,-46.3045 L -71.8856,-46.4723
 L -72.2223,-46.6741 L -72.5376,-46.908 L -72.8284,-47.1716 L -73.092,-47.4624 L -73.3259,-47.7777 L -73.5277,-48.1144
 L -73.6955,-48.4693 L -73.8278,-48.8389 L -73.9231,-49.2196 L -73.9807,-49.6079 z
M -4,10 L -3.98074,9.60793 L -3.92314,9.21964 L -3.82776,8.83886 L -3.69552,8.46927 L -3.52768,8.11441
 L -3.32588,7.77772 L -3.09204,7.46243 L -2.82843,7.17157 L -2.53757,6.90796 L -2.22228,6.67412 L -1.88559,6.47231
 L -1.53073,6.30448 L -1.16114,6.17224 L -0.780361,6.07686 L -0.392068,6.01926 L 0,6 L 0.392068,6.01926
 L 0.780361,6.07686 L 1.16114,6.17224 L 1.53073,6.30448 L 1.88559,6.47231 L 2.22228,6.67412 L 2.53757,6.90796
 L 2.82843,7.17157 L 3.09204,7.46243 L 3.32588,7.77772 L 3.52768,8.11441 L 3.69552,8.46927 L 3.82776,8.83886
 L 3.92314,9.21964 L 3.98074,9.60793 L 4,10 L 3.98074,10.3921 L 3.92314,10.7804 L 3.82776,11.1611
 L 3.69552,11.5307 L 3.52768,11.8856 L 3.32588,12.2223 L 3.09204,12.5376 L 2.82843,12.8284 L 2.53757,13.092
 L 2.22228,13.3259 L 1.88559,13.5277 L 1.53073,13.6955 L 1.16114,13.8278 L 0.780361,13.9231 L 0.392068,13.9807
 L 0,14 L -0.392068,13.9807 L -0.780361,13.9231 L -1.16114,13.8278 L -1.53073,13.6955 L -1.88559,13.5277
 L -2.22228,13.3259 L -2.53757,13.092 L -2.82843,12.8284 L -3.09204,12.5376 L -3.32588,12.2223 L -3.52768,11.8856
 L -3.69552,11.5307 L -3.82776,11.1611 L -3.92314,10.7804 L -3.98074,10.3921 z
M -4,-50 L -3.98074,-50.3921 L -3.92314,-50.7804 L -3.82776,-51.1611 L -3.69552,-51.5307 L -3.52768,-51.8856
 L -3.32588,-52.2223 L -3.09204,-52.5376 L -2.82843,-52.8284 L -2.53757,-53.092 L -2.22228,-53.3259 L -1.88559,-53.5277
 L -1.53073,-53.6955 L -1.16114,-53.8278 L -0.780361,-53.9231 L -0.392068,-53.9807 L 0,-54 L 0.392068,-53.9807
 L 0.780361,-53.9231 L 1.16114,-53.8278 L 1.53073,-53.6955 L 1.88559,-53.5277 L 2.22228,-53.3259 L 2.53757,-53.092
 L 2.82843,-52.8284 L 3.09204,-52.5376 L 3.32588,-52.2223 L 3.52768,-51.8856 L 3.69552,-51.5307 L 3.82776,-51.1611
 L 3.92314,-50.7804 L 3.98074,-50.3921 L 4,-50 L 3.98074,-49.6079 L 3.92314,-49.2196 L 3.82776,-48.8389
 L 3.69552,-48.4693 L 3.52768,-48.1144 L 3.32588,-47.7777 L 3.09204,-47.4624 L 2.82843,-47.1716 L 2.53757,-46.908
 L 2.22228,-46.6741 L 1.88559,-46.4723 L 1.53073,-46.3045 L 1.16114,-46.1722 L 0.780361,-46.0769 L 0.392068,-46.0193
 L 0,-46 L -0.392068,-46.0193 L -0.780361,-46.0769 L -1.16114,-46.1722 L -1.53073,-46.3045 L -1.88559,-46.4723
 L -2.22228,-46.6741 L -2.53757,-46.908 L -2.82843,-47.1716 L -3.09204,-47.4624 L -3.32588,-47.7777 L -3.52768,-48.1144
 L -3.69552,-48.4693 L -3.82776,-48.8389 L -3.92314,-49.2196 L -3.98074,-49.6079 z
M -3,85 L -2.98555,84.7059 L -2.94236,84.4147 L -2.87082,84.1291 L -2.77164,83.8519 L -2.64576,83.5858
 L -2.49441,83.3333 L -2.31903,83.0968 L -2.12132,82.8787 L -1.90318,82.681 L -1.66671,82.5056 L -1.41419,82.3542
 L -1.14805,82.2284 L -0.870853,82.1292 L -0.585271,82.0576 L -0.294051,82.0144 L 0,82 L 0.294051,82.0144
 L 0.585271,82.0576 L 0.870853,82.1292 L 1.14805,82.2284 L 1.41419,82.3542 L 1.66671,82.5056 L 1.90318,82.681
 L 2.12132,82.8787 L 2.31903,83.0968 L 2.49441,83.3333 L 2.64576,83.5858 L 2.77164,83.8519 L 2.87082,84.1291
 L 2.94236,84.4147 L 2.98555,84.7059 L 3,85 L 2.98555,85.2941 L 2.94236,85.5853 L 2.87082,85.8709
 L 2.77164,86.148 L 2.64576,86.4142 L 2.49441,86.6667 L 2.31903,86.9032 L 2.12132,87.1213 L 1.90318,87.319
 L 1.66671,87.4944 L 1.41419,87.6458 L 1.14805,87.7716 L 0.870853,87.8708 L 0.585271,87.9424 L 0.294051,87.9856
 L 0,88 L -0.294051,87.9856 L -0.585271,87.9424 L -0.870853,87.8708 L -1.14805,87.7716 L -1.41419,87.6458
 L -1.66671,87.4944 L -1.90318,87.319 L -2.12132,87.1213 L -2.31903,86.9032 L -2.49441,86.6667 L -2.64576,86.4142
 L -2.77164,86.148 L -2.87082,85.8709 L -2.94236,85.5853 L -2.98555,85.2941 z
M -3,-85 L -2.98555,-85.2941 L -2.94236,-85.5853 L -2.87082,-85.8709 L -2.77164,-86.148 L -2.64576,-86.4142
 L -2.49441,-86.6667 L -2.31903,-86.9032 L -2.12132,-87.1213 L -1.90318,-87.319 L -1.66671,-87.4944 L -1.41419,-87.6458
 L -1.14805,-87.7716 L -0.870853,-87.8708 L -0.585271,-87.9424 L -0.294051,-87.9856 L 0,-88 L 0.294051,-87.9856
 L 0.585271,-87.9424 L 0.870853,-87.8708 L 1.14805,-87.7716 L 1.41419,-87.6458 L 1.66671,-87.4944 L 1.90318,-87.319
 L 2.12132,-87.1213 L 2.31903,-86.9032 L 2.49441,-86.6667 L 2.64576,-86.4142 L 2.77164,-86.148 L 2.87082,-85.8709
 L 2.94236,-85.5853 L 2.98555,-85.2941 L 3,-85 L 2.98555,-84.7059 L 2.94236,-84.4147 L 2.87082,-84.1291
 L 2.77164,-83.8519 L 2.64576,-83.5858 L 2.49441,-83.3333 L 2.31903,-83.0968 L 2.12132,-82.8787 L 1.90318,-82.681
 L 1.66671,-82.5056 L 1.41419,-82.3542 L 1.14805,-82.2284 L 0.870853,-82.1292 L 0.585271,-82.0576 L 0.294051,-82.0144
 L 0,-82 L -0.294051,-82.0144 L -0.585271,-82.0576 L -0.870853,-82.1292 L -1.14805,-82.2284 L -1.41419,-82.3542
 L -1.66671,-82.5056 L -1.90318,-82.681 L -2.12132,-82.8787 L -2.31903,-83.0968 L -2.49441,-83.3333 L -2.64576,-83.5858
 L -2.77164,-83.8519 L -2.87082,-84.1291 L -2.94236,-84.4147 L -2.98555,-84.7059 z
M 66,10 L 66.0193,9.60793 L 66.0769,9.21964 L 66.1722,8.83886 L 66.3045,8.46927 L 66.4723,8.11441
 L 66.6741,7.77772 L 66.908,7.46243 L 67.1716,7.17157 L 67.4624,6.90796 L 67.7777,6.67412 L 68.1144,6.47231
 L 68.4693,6.30448 L 68.8389,6.17224 L 69.2196,6.07686 L 69.6079,6.01926 L 70,6 L 70.3921,6.01926
 L 70.7804,6.07686 L 71.1611,6.17224 L 71.5307,6.30448 L 71.8856,6.47231 L 72.2223,6.67412 L 72.5376,6.90796
 L 72.8284,7.17157 L 73.092,7.46243 L 73.3259,7.77772 L 73.5277,8.11441 L 73.6955,8.46927 L 73.8278,8.83886
 L 73.9231,9.21964 L 73.9807,9.60793 L 74,10 L 73.9807,10.3921 L 73.9231,10.7804 L 73.8278,11.1611
 L 73.6955,11.5307 L 73.5277,11.8856 L 73.3259,12.2223 L 73.092,12.5376 L 72.8284,12.8284 L 72.5376,13.092
 L 72.2223,13.3259 L 71.8856,13.5277 L 71.5307,13.6955 L 71.1611,13.8278 L 70.7804,13.9231 L 70.3921,13.9807
 L 70,14 L 69.6079,13.9807 L 69.2196,13.9231 L 68.8389,13.8278 L 68.4693,13.6955 L 68.1144,13.5277
 L 67.7777,13.3259 L 67.4624,13.092 L 67.1716,12.8284 L 66.908,12.5376 L 66.6741,12.2223 L 66.4723,11.8856
 L 66.3045,11.5307 L 66.1722,11.1611 L 66.0769,10.7804 L 66.0193,10.3921 z
M 66,-50 L 66.0193,-50.3921 L 66.0769,-50.7804 L 66.1722,-51.1611 L 66.3045,-51.5307 L 66.4723,-51.8856
 L 66.6741,-52.2223 L 66.908,-52.5376 L 67.1716,-52.8284 L 67.4624,-53.092 L 67.7777,-53.3259 L 68.1144,-53.5277
 L 68.4693,-53.6955 L 68.8389,-53.8278 L 69.2196,-53.9231 L 69.6079,-53.9807 L 70,-54 L 70.3921,-53.9807
 L 70.7804,-53.9231 L 71.1611,-53.8278 L 71.5307,-53.6955 L 71.8856,-53.5277 L 72.2223,-53.3259 L 72.5376,-53.092
 L 72.8284,-52.8284 L 73.092,-52.5376 L 73.3259,-52.2223 L 73.5277,-51.8856 L 73.6955,-51.5307 L 73.8278,-51.1611
 L 73.9231,-50.7804 L 73.9807,-50.3921 L 74,-50 L 73.9807,-49.6079 L 73.9231,-49.2196 L 73.8278,-48.8389
 L 73.6955,-48.4693 L 73.5277,-48.1144 L 73.3259,-47.7777 L 73.092,-47.4624 L 72.8284,-47.1716 L 72.5376,-46.908
 L 72.2223,-46.6741 L 71.8856,-46.4723 L 71.5307,-46.3045 L 71.1611,-46.1722 L 70.7804,-46.0769 L 70.3921,-46.0193
 L 70,-46 L 69.6079,-46.0193 L 69.2196,-46.0769 L 68.8389,-46.1722 L 68.4693,-46.3045 L 68.1144,-46.4723
 L 67.7777,-46.6741 L 67.4624,-46.908 L 67.1716,-47.1716 L 66.908,-47.4624 L 66.6741,-47.7777 L 66.4723,-48.1144
 L 66.3045,-48.4693 L 66.1722,-48.8389 L 66.0769,-49.2196 L 66.0193,-49.6079 z
M 136,10 L 136.019,9.60793 L 136.077,9.21964 L 136.172,8.83886 L 136.304,8.46927 L 136.472,8.11441
 L 136.674,7.77772 L 136.908,7.46243 L 137.172,7.17157 L 137.462,6.90796 L 137.778,6.67412 L 138.114,6.47231
 L 138.469,6.30448 L 138.839,6.17224 L 139.22,6.07686 L 139.608,6.01926 L 140,6 L 140.392,6.01926
 L 140.78,6.07686 L 141.161,6.17224 L 141.531,6.30448 L 141.886,6.47231 L 142.222,6.67412 L 142.538,6.90796
 L 142.828,7.17157 L 143.092,7.46243 L 143.326,7.77772 L 143.528,8.11441 L 143.696,8.46927 L 143.828,8.83886
 L 143.923,9.21964 L 143.981,9.60793 L 144,10 L 143.981,10.3921 L 143.923,10.7804 L 143.828,11.1611
 L 143.696,11.5307 L 143.528,11.8856 L 143.326,12.2223 L 143.092,12.5376 L 142.828,12.8284 L 142.538,13.092
 L 142.222,13.3259 L 141.886,13.5277 L 141.531,13.6955 L 141.161,13.8278 L 140.78,13.9231 L 140.392,13.9807
 L 140,14 L 139.608,13.9807 L 139.22,13.9231 L 138.839,13.8278 L 138.469,13.6955 L 138.114,13.5277
 L 137.778,13.3259 L 137.462,13.092 L 137.172,12.8284 L 136.908,12.5376 L 136.674,12.2223 L 136.472,11.8856
 L 136.304,11.5307 L 136.172,11.1611 L 136.077,10.7804 L 136.019,10.3921 z
M 136,-50 L 136.019,-50.3921 L 136.077,-50.7804 L 136.172,-51.1611 L 136.304,-51.5307 L 136.472,-51.8856
 L 136.674,-52.2223 L 136.908,-52.5376 L 137.172,-52.8284 L 137.462,-53.092 L 137.778,-53.3259 L 138.114,-53.5277
 L 138.469,-53.6955 L 138.839,-53.8278 L 139.22,-53.9231 L 139.608,-53.9807 L 140,-54 L 140.392,-53.9807
 L 140.78,-53.9231 L 141.161,-53.8278 L 141.531,-53.6955 L 141.886,-53.5277 L 142.222,-53.3259 L 142.538,-53.092
 L 142.828,-52.8284 L 143.092,-52.5376 L 143.326,-52.2223 L 143.528,-51.8856 L 143.696,-51.5307 L 143.828,-51.1611
 L 143.923,-50.7804 L 143.981,-50.3921 L 144,-50 L 143.981,-49.6079 L 143.923,-49.2196 L 143.828,-48.8389
 L 143.696,-48.4693 L 143.528,-48.1144 L 143.326,-47.7777 L 143.092,-47.4624 L 142.828,-47.1716 L 142.538,-46.908
 L 142.222,-46.6741 L 141.886,-46.4723 L 141.531,-46.3045 L 141.161,-46.1722 L 140.78,-46.0769 L 140.392,-46.0193
 L 140,-46 L 139.608,-46.0193 L 139.22,-46.0769 L 138.839,-46.1722 L 138.469,-46.3045 L 138.114,-46.4723
 L 137.778,-46.6741 L 137.462,-46.908 L 137.172,-47.1716 L 136.908,-47.4624 L 136.674,-47.7777 L 136.472,-48.1144
 L 136.304,-48.4693 L 136.172,-48.8389 L 136.077,-49.2196 L 136.019,-49.6079 z
M 177,85 L 177.014,84.7059 L 177.058,84.4147 L 177.129,84.1291 L 177.228,83.8519 L 177.354,83.5858
 L 177.506,83.3333 L 177.681,83.0968 L 177.879,82.8787 L 178.097,82.681 L 178.333,82.5056 L 178.586,82.3542
 L 178.852,82.2284 L 179.129,82.1292 L 179.415,82.0576 L 179.706,82.0144 L 180,82 L 180.294,82.0144
 L 180.585,82.0576 L 180.871,82.1292 L 181.148,82.2284 L 181.414,82.3542 L 181.667,82.5056 L 181.903,82.681
 L 182.121,82.8787 L 182.319,83.0968 L 182.494,83.3333 L 182.646,83.5858 L 182.772,83.8519 L 182.871,84.1291
 L 182.942,84.4147 L 182.986,84.7059 L 183,85 L 182.986,85.2941 L 182.942,85.5853 L 182.871,85.8709
 L 182.772,86.148 L 182.646,86.4142 L 182.494,86.6667 L 182.319,86.9032 L 182.121,87.1213 L 181.903,87.319
 L 181.667,87.4944 L 181.414,87.6458 L 181.148,87.7716 L 180.871,87.8708 L 180.585,87.9424 L 180.294,87.9856
 L 180,88 L 179.706,87.9856 L 179.415,87.9424 L 179.129,87.8708 L 178.852,87.7716 L 178.586,87.6458
 L 178.333,87.4944 L 178.097,87.319 L 177.879,87.1213 L 177.681,86.9032 L 177.506,86.6667 L 177.354,86.4142
 L 177.228,86.148 L 177.129,85.8709 L 177.058,85.5853 L 177.014,85.2941 z
M 177,-85 L 177.014,-85.2941 L 177.058,-85.5853 L 177.129,-85.8709 L 177.228,-86.148 L 177.354,-86.4142
 L 177.506,-86.6667 L 177.681,-86.9032 L 177.879,-87.1213 L 178.097,-87.319 L 178.333,-87.4944 L 178.586,-87.6458
 L 178.852,-87.7716 L 179.129,-87.8708 L 179.415,-87.9424 L 179.706,-87.9856 L 180,-88 L 180.294,-87.9856
 L 180.585,-87.9424 L 180.871,-87.8708 L 181.148,-87.7716 L 181.414,-87.6458 L 181.667,-87.4944 L 181.903,-87.319
 L 182.121,-87.1213 L 182.319,-86.9032 L 182.494,-86.6667 L 182.646,-86.4142 L 182.772,-86.148 L 182.871,-85.8709
 L 182.942,-85.5853 L 182.986,-85.2941 L 183,-85 L 182.986,-84.7059 L 182.942,-84.4147 L 182.871,-84.1291
 L 182.772,-83.8519 L 182.646,-83.5858 L 182.494,-83.3333 L 182.319,-83.0968 L 182.121,-82.8787 L 181.903,-82.681
 L 181.667,-82.5056 L 181.414,-82.3542 L 181.148,-82.2284 L 180.871,-82.1292 L 180.585,-82.0576 L 180.294,-82.0144
 L 180,-82 L 179.706,-82.0144 L 179.415,-82.0576 L 179.129,-82.1292 L 178.852,-82.2284 L 178.586,-82.3542
 L 178.333,-82.5056 L 178.097,-82.681 L 177.879,-82.8787 L 177.681,-83.0968 L 177.506,-83.3333 L 177.354,-83.5858
 L 177.228,-83.8519 L 177.129,-84.1291 L 177.058,-84.4147 L 177.014,-84.7059 z
" stroke="black" fill="lightgray" stroke-width="0.5"/>
</svg>
