<?xml version="1.0" standalone="no"?>
<!DOCTYPE svg PUBLIC "-//W3C//DTD SVG 1.1//EN" "http://www.w3.org/Graphics/SVG/1.1/DTD/svg11.dtd">
<svg width="666mm" height="386mm" viewBox="-333 -193 666 386" xmlns="http://www.w3.org/2000/svg" version="1.1">
<title>OpenSCAD Model</title>
<path d="
M -333,190 L -332.986,190.294 L -332.942,190.585 L -332.871,190.871 L -332.772,191.148 L -332.646,191.414
 L -332.494,191.667 L -332.319,191.903 L -332.121,192.121 L -331.903,192.319 L -331.667,192.494 L -331.414,192.646
 L -331.148,192.772 L -330.871,192.871 L -330.585,192.942 L -330.294,192.986 L -330,193 L -329.706,192.986
 L -329.415,192.942 L -329.129,192.871 L -328.852,192.772 L -328.586,192.646 L -328.333,192.494 L -328.097,192.319
 L -327.879,192.121 L -327.681,191.903 L -327.506,191.667 L -327.354,191.414 L -327.228,191.148 L -327.129,190.871
 L -327.058,190.585 L -327.014,190.294 L -327,190 L -327.014,189.706 L -327.058,189.415 L -327.129,189.129
 L -327.228,188.852 L -327.354,188.586 L -327.506,188.333 L -327.681,188.097 L -327.879,187.879 L -328.097,187.681
 L -328.333,187.506 L -328.586,187.354 L -328.852,187.228 L -329.129,187.129 L -329.415,187.058 L -329.706,187.014
 L -330,187 L -330.294,187.014 L -330.585,187.058 L -330.871,187.129 L -331.148,187.228 L -331.414,187.354
 L -331.667,187.506 L -331.903,187.681 L -332.121,187.879 L -332.319,188.097 L -332.494,188.333 L -332.646,188.586
 L -332.772,188.852 L -332.871,189.129 L -332.942,189.415 L -332.986,189.706 z
M -333,-0 L -332.986,0.294051 L -332.942,0.585271 L -332.871,0.870853 L -332.772,1.14805 L -332.646,1.41419
 L -332.494,1.66671 L -332.319,1.90318 L -332.121,2.12132 L -331.903,2.31903 L -331.667,2.49441 L -331.414,2.64576
 L -331.148,2.77164 L -330.871,2.87082 L -330.585,2.94236 L -330.294,2.98555 L -330,3 L -329.706,2.98555
 L -329.415,2.94236 L -329.129,2.87082 L -328.852,2.77164 L -328.586,2.64576 L -328.333,2.49441 L -328.097,2.31903
 L -327.879,2.12132 L -327.681,1.90318 L -327.506,1.66671 L -327.354,1.41419 L -327.228,1.14805 L -327.129,0.870853
 L -327.058,0.585271 L -327.014,0.294051 L -327,-0 L -327.014,-0.294051 L -327.058,-0.585271 L -327.129,-0.870853
 L -327.228,-1.14805 L -327.354,-1.41419 L -327.506,-1.66671 L -327.681,-1.90318 L -327.879,-2.12132 L -328.097,-2.31903
 L -328.333,-2.49441 L -328.586,-2.64576 L -328.852,-2.77164 L -329.129,-2.87082 L -329.415,-2.94236 L -329.706,-2.98555
 L -330,-3 L -330.294,-2.98555 L -330.585,-2.94236 L -330.871,-2.87082 L -331.148,-2.77164 L -331.414,-2.64576
 L -331.667,-2.49441 L -331.903,-2.31903 L -332.121,-2.12132 L -332.319,-1.90318 L -332.494,-1.66671 L -332.646,-1.41419
 L -332.772,-1.14805 L -332.871,-0.870853 L -332.942,-0.585271 L -332.986,-0.294051 z
M -333,-190 L -332.986,-189.706 L -332.942,-189.415 L -332.871,-189.129 L -332.772,-188.852 L -332.646,-188.586
 L -332.494,-188.333 L -332.319,-188.097 L -332.121,-187.879 L -331.903,-187.681 L -331.667,-187.506 L -331.414,-187.354
 L -331.148,-187.228 L -330.871,-187.129 L -330.585,-187.058 L -330.294,-187.014 L -330,-187 L -329.706,-187.014
 L -329.415,-187.058 L -329.129,-187.129 L -328.852,-187.228 L -328.586,-187.354 L -328.333,-187.506 L -328.097,-187.681
 L -327.879,-187.879 L -327.681,-188.097 L -327.506,-188.333 L -327.354,-188.586 L -327.228,-188.852 L -327.129,-189.129
 L -327.058,-189.415 L -327.014,-189.706 L -327,-190 L -327.014,-190.294 L -327.058,-190.585 L -327.129,-190.871
 L -327.228,-191.148 L -327.354,-191.414 L -327.506,-191.667 L -327.681,-191.903 L -327.879,-192.121 L -328.097,-192.319
 L -328.333,-192.494 L -328.586,-192.646 L -328.852,-192.772 L -329.129,-192.871 L -329.415,-192.942 L -329.706,-192.986
 L -330,-193 L -330.294,-192.986 L -330.585,-192.942 L -330.871,-192.871 L -331.148,-192.772 L -331.414,-192.646
 L -331.667,-192.494 L -331.903,-192.319 L -332.121,-192.121 L -332.319,-191.903 L -332.494,-191.667 L -332.646,-191.414
 L -332.772,-191.148 L -332.871,-190.871 L -332.942,-190.585 L -332.986,-190.294 z
M -113,190 L -112.986,190.294 L -112.942,190.585 L -112.871,190.871 L -112.772,191.148 L -112.646,191.414
 L -112.494,191.667 L -112.319,191.903 L -112.121,192.121 L -111.903,192.319 L -111.667,192.494 L -111.414,192.646
 L -111.148,192.772 L -110.871,192.871 L -110.585,192.942 L -110.294,192.986 L -110,193 L -109.706,192.986
 L -109.415,192.942 L -109.129,192.871 L -108.852,192.772 L -108.586,192.646 L -108.333,192.494 L -108.097,192.319
 L -107.879,192.121 L -107.681,191.903 L -107.506,191.667 L -107.354,191.414 L -107.228,191.148 L -107.129,190.871
 L -107.058,190.585 L -107.014,190.294 L -107,190 L -107.014,189.706 L -107.058,189.415 L -107.129,189.129
 L -107.228,188.852 L -107.354,188.586 L -107.506,188.333 L -107.681,188.097 L -107.879,187.879 L -108.097,187.681
 L -108.333,187.506 L -108.586,187.354 L -108.852,187.228 L -109.129,187.129 L -109.415,187.058 L -109.706,187.014
 L -110,187 L -110.294,187.014 L -110.585,187.058 L -110.871,187.129 L -111.148,187.228 L -111.414,187.354
 L -111.667,187.506 L -111.903,187.681 L -112.121,187.879 L -112.319,188.097 L -112.494,188.333 L -112.646,188.586
 L -112.772,188.852 L -112.871,189.129 L -112.942,189.415 L -112.986,189.706 z
M -113,-190 L -112.986,-189.706 L -112.942,-189.415 L -112.871,-189.129 L -112.772,-188.852 L -112.646,-188.586
 L -112.494,-188.333 L -112.319,-188.097 L -112.121,-187.879 L -111.903,-187.681 L -111.667,-187.506 L -111.414,-187.354
 L -111.148,-187.228 L -110.871,-187.129 L -110.585,-187.058 L -110.294,-187.014 L -110,-187 L -109.706,-187.014
 L -109.415,-187.058 L -109.129,-187.129 L -108.852,-187.228 L -108.586,-187.354 L -108.333,-187.506 L -108.097,-187.681
 L -107.879,-187.879 L -107.681,-188.097 L -107.506,-188.333 L -107.354,-188.586 L -107.228,-188.852 L -107.129,-189.129
 L -107.058,-189.415 L -107.014,-189.706 L -107,-190 L -107.014,-190.294 L -107.058,-190.585 L -107.129,-190.871
 L -107.228,-191.148 L -107.354,-191.414 L -107.506,-191.667 L -107.681,-191.903 L -107.879,-192.121 L -108.097,-192.319
 L -108.333,-192.494 L -108.586,-192.646 L -108.852,-192.772 L -109.129,-192.871 L -109.415,-192.942 L -109.706,-192.986
 L -110,-193 L -110.294,-192.986 L -110.585,-192.942 L -110.871,-192.871 L -111.148,-192.772 L -111.414,-192.646
 L -111.667,-192.494 L -111.903,-192.319 L -112.121,-192.121 L -112.319,-191.903 L -112.494,-191.667 L -112.646,-191.414
 L -112.772,-191.148 L -112.871,-190.871 L -112.942,-190.585 L -112.986,-190.294 z
M 107,190 L 107.014,190.294 L 107.058,190.585 L 107.129,190.871 L 107.228,191.148 L 107.354,191.414
 L 107.506,191.667 L 107.681,191.903 L 107.879,192.121 L 108.097,192.319 L 108.333,192.494 L 108.586,192.646
 L 108.852,192.772 L 109.129,192.871 L 109.415,192.942 L 109.706,192.986 L 110,193 L 110.294,192.986
 L 110.585,192.942 L 110.871,192.871 L 111.148,192.772 L 111.414,192.646 L 111.667,192.494 L 111.903,192.319
 L 112.121,192.121 L 112.319,191.903 L 112.494,191.667 L 112.646,191.414 L 112.772,191.148 L 112.871,190.871
 L 112.942,190.585 L 112.986,190.294 L 113,190 L 112.986,189.706 L 112.942,189.415 L 112.871,189.129
 L 112.772,188.852 L 112.646,188.586 L 112.494,188.333 L 112.319,188.097 L 112.121,187.879 L 111.903,187.681
 L 111.667,187.506 L 111.414,187.354 L 111.148,187.228 L 110.871,187.129 L 110.585,187.058 L 110.294,187.014
 L 110,187 L 109.706,187.014 L 109.415,187.058 L 109.129,187.129 L 108.852,187.228 L 108.586,187.354
 L 108.333,187.506 L 108.097,187.681 L 107.879,187.879 L 107.681,188.097 L 107.506,188.333 L 107.354,188.586
 L 107.228,188.852 L 107.129,189.129 L 107.058,189.415 L 107.014,189.706 z
M 107,-190 L 107.014,-189.706 L 107.058,-189.415 L 107.129,-189.129 L 107.228,-188.852 L 107.354,-188.586
 L 107.506,-188.333 L 107.681,-188.097 L 107.879,-187.879 L 108.097,-187.681 L 108.333,-187.506 L 108.586,-187.354
 L 108.852,-187.228 L 109.129,-187.129 L 109.415,-187.058 L 109.706,-187.014 L 110,-187 L 110.294,-187.014
 L 110.585,-187.058 L 110.871,-187.129 L 111.148,-187.228 L 111.414,-187.354 L 111.667,-187.506 L 111.903,-187.681
 L 112.121,-187.879 L 112.319,-188.097 L 112.494,-188.333 L 112.646,-188.586 L 112.772,-188.852 L 112.871,-189.129
 L 112.942,-189.415 L 112.986,-189.706 L 113,-190 L 112.986,-190.294 L 112.942,-190.585 L 112.871,-190.871
 L 112.772,-191.148 L 112.646,-191.414 L 112.494,-191.667 L 112.319,-191.903 L 112.121,-192.121 L 111.903,-192.319
 L 111.667,-192.494 L 111.414,-192.646 L 111.148,-192.772 L 110.871,-192.871 L 110.585,-192.942 L 110.294,-192.986
 L 110,-193 L 109.706,-192.986 L 109.415,-192.942 L 109.129,-192.871 L 108.852,-192.772 L 108.586,-192.646
 L 108.333,-192.494 L 108.097,-192.319 L 107.879,-192.121 L 107.681,-191.903 L 107.506,-191.667 L 107.354,-191.414
 L 107.228,-191.148 L 107.129,-190.871 L 107.058,-190.585 L 107.014,-190.294 z
M 327,190 L 327.014,190.294 L 327.058,190.585 L 327.129,190.871 L 327.228,191.148 L 327.354,191.414
 L 327.506,191.667 L 327.681,191.903 L 327.879,192.121 L 328.097,192.319 L 328.333,192.494 L 328.586,192.646
 L 328.852,192.772 L 329.129,192.871 L 329.415,192.942 L 329.706,192.986 L 330,193 L 330.294,192.986
 L 330.585,192.942 L 330.871,192.871 L 331.148,192.772 L 331.414,192.646 L 331.667,192.494 L 331.903,192.319
 L 332.121,192.121 L 332.319,191.903 L 332.494,191.667 L 332.646,191.414 L 332.772,191.148 L 332.871,190.871
 L 332.942,190.585 L 332.986,190.294 L 333,190 L 332.986,189.706 L 332.942,189.415 L 332.871,189.129
 L 332.772,188.852 L 332.646,188.586 L 332.494,188.333 L 332.319,188.097 L 332.121,187.879 L 331.903,187.681
 L 331.667,187.506 L 331.414,187.354 L 331.148,187.228 L 330.871,187.129 L 330.585,187.058 L 330.294,187.014
 L 330,187 L 329.706,187.014 L 329.415,187.058 L 329.129,187.129 L 328.852,187.228 L 328.586,187.354
 L 328.333,187.506 L 328.097,187.681 L 327.879,187.879 L 327.681,188.097 L 327.506,188.333 L 327.354,188.586
 L 327.228,188.852 L 327.129,189.129 L 327.058,189.415 L 327.014,189.706 z
M 327,-0 L 327.014,0.294051 L 327.058,0.585271 L 327.129,0.870853 L 327.228,1.14805 L 327.354,1.41419
 L 327.506,1.66671 L 327.681,1.90318 L 327.879,2.12132 L 328.097,2.31903 L 328.333,2.49441 L 328.586,2.64576
 L 328.852,2.77164 L 329.129,2.87082 L 329.415,2.94236 L 329.706,2.98555 L 330,3 L 330.294,2.98555
 L 330.585,2.94236 L 330.871,2.87082 L 331.148,2.77164 L 331.414,2.64576 L 331.667,2.49441 L 331.903,2.31903
 L 332.121,2.12132 L 332.319,1.90318 L 332.494,1.66671 L 332.646,1.41419 L 332.772,1.14805 L 332.871,0.870853
 L 332.942,0.585271 L 332.986,0.294051 L 333,-0 L 332.986,-0.294051 L 332.942,-0.585271 L 332.871,-0.870853
 L 332.772,-1.14805 L 332.646,-1.41419 L 332.494,-1.66671 L 332.319,-1.90318 L 332.121,-2.12132 L 331.903,-2.31903
 L 331.667,-2.49441 L 331.414,-2.64576 L 331.148,-2.77164 L 330.871,-2.87082 L 330.585,-2.94236 L 330.294,-2.98555
 L 330,-3 L 329.706,-2.98555 L 329.415,-2.94236 L 329.129,-2.87082 L 328.852,-2.77164 L 328.586,-2.64576
 L 328.333,-2.49441 L 328.097,-2.31903 L 327.879,-2.12132 L 327.681,-1.90318 L 327.506,-1.66671 L 327.354,-1.41419
 L 327.228,-1.14805 L 327.129,-0.870853 L 327.058,-0.585271 L 327.014,-0.294051 z
M 327,-190 L 327.014,-189.706 L 327.058,-189.415 L 327.129,-189.129 L 327.228,-188.852 L 327.354,-188.586
 L 327.506,-188.333 L 327.681,-188.097 L 327.879,-187.879 L 328.097,-187.681 L 328.333,-187.506 L 328.586,-187.354
 L 328.852,-187.228 L 329.129,-187.129 L 329.415,-187.058 L 329.706,-187.014 L 330,-187 L 330.294,-187.014
 L 330.585,-187.058 L 330.871,-187.129 L 331.148,-187.228 L 331.414,-187.354 L 331.667,-187.506 L 331.903,-187.681
 L 332.121,-187.879 L 332.319,-188.097 L 332.494,-188.333 L 332.646,-188.586 L 332.772,-188.852 L 332.871,-189.129
 L 332.942,-189.415 L 332.986,-189.706 L 333,-190 L 332.986,-190.294 L 332.942,-190.585 L 332.871,-190.871
 L 332.772,-191.148 L 332.646,-191.414 L 332.494,-191.667 L 332.319,-191.903 L 332.121,-192.121 L 331.903,-192.319
 L 331.667,-192.494 L 331.414,-192.646 L 331.148,-192.772 L 330.871,-192.871 L 330.585,-192.942 L 330.294,-192.986
 L 330,-193 L 329.706,-192.986 L 329.415,-192.942 L 329.129,-192.871 L 328.852,-192.772 L 328.586,-192.646
 L 328.333,-192.494 L 328.097,-192.319 L 327.879,-192.121 L 327.681,-191.903 L 327.506,-191.667 L 327.354,-191.414
 L 327.228,-191.148 L 327.129,-190.871 L 327.058,-190.585 L 327.014,-190.294 z
" stroke="black" fill="lightgray" stroke-width="0.5"/>
</svg>
