<?xml version="1.0" standalone="no"?>
<!DOCTYPE svg PUBLIC "-//W3C//DTD SVG 1.1//EN" "http://www.w3.org/Graphics/SVG/1.1/DTD/svg11.dtd">
<svg width="700mm" height="420mm" viewBox="-350 -210 700 420" xmlns="http://www.w3.org/2000/svg" version="1.1">
<title>OpenSCAD Model</title>
<path d="
M -350,190 L -349.904,191.96 L -349.616,193.902 L -349.139,195.806 L -348.478,197.654 L -347.638,199.428
 L -346.629,201.111 L -345.46,202.688 L -344.142,204.142 L -342.688,205.46 L -341.111,206.629 L -339.428,207.638
 L -337.654,208.478 L -335.806,209.139 L -333.902,209.616 L -331.96,209.904 L -330,210 L 330,210
 L 331.96,209.904 L 333.902,209.616 L 335.806,209.139 L 337.654,208.478 L 339.428,207.638 L 341.111,206.629
 L 342.688,205.46 L 344.142,204.142 L 345.46,202.688 L 346.629,201.111 L 347.638,199.428 L 348.478,197.654
 L 349.139,195.806 L 349.616,193.902 L 349.904,191.96 L 350,190 L 350,-190 L 349.904,-191.96
 L 349.616,-193.902 L 349.139,-195.806 L 348.478,-197.654 L 347.638,-199.428 L 346.629,-201.111 L 345.46,-202.688
 L 344.142,-204.142 L 342.688,-205.46 L 341.111,-206.629 L 339.428,-207.638 L 337.654,-208.478 L 335.806,-209.139
 L 333.902,-209.616 L 331.96,-209.904 L 330,-210 L -330,-210 L -331.96,-209.904 L -333.902,-209.616
 L -335.806,-209.139 L -337.654,-208.478 L -339.428,-207.638 L -341.111,-206.629 L -342.688,-205.46 L -344.142,-204.142
 L -345.46,-202.688 L -346.629,-201.111 L -347.638,-199.428 L -348.478,-197.654 L -349.139,-195.806 L -349.616,-193.902
 L -349.904,-191.96 L -350,-190 z
M -333,175 L -332.986,174.706 L -332.942,174.415 L -332.871,174.129 L -332.772,173.852 L -332.646,173.586
 L -332.494,173.333 L -332.319,173.097 L -332.121,172.879 L -331.903,172.681 L -331.667,172.506 L -331.414,172.354
 L -331.148,172.228 L -330.871,172.129 L -330.585,172.058 L -330.294,172.014 L -330,172 L -329.706,172.014
 L -329.415,172.058 L -329.129,172.129 L -328.852,172.228 L -328.586,172.354 L -328.333,172.506 L -328.097,172.681
 L -327.879,172.879 L -327.681,173.097 L -327.506,173.333 L -327.354,173.586 L -327.228,173.852 L -327.129,174.129
 L -327.058,174.415 L -327.014,174.706 L -327,175 L -327.014,175.294 L -327.058,175.585 L -327.129,175.871
 L -327.228,176.148 L -327.354,176.414 L -327.506,176.667 L -327.681,176.903 L -327.879,177.121 L -328.097,177.319
 L -328.333,177.494 L -328.586,177.646 L -328.852,177.772 L -329.129,177.871 L -329.415,177.942 L -329.706,177.986
 L -330,178 L -330.294,177.986 L -330.585,177.942 L -330.871,177.871 L -331.148,177.772 L -331.414,177.646
 L -331.667,177.494 L -331.903,177.319 L -332.121,177.121 L -332.319,176.903 L -332.494,176.667 L -332.646,176.414
 L -332.772,176.148 L -332.871,175.871 L -332.942,175.585 L -332.986,175.294 z
M -333,-175 L -332.986,-175.294 L -332.942,-175.585 L -332.871,-175.871 L -332.772,-176.148 L -332.646,-176.414
 L -332.494,-176.667 L -332.319,-176.903 L -332.121,-177.121 L -331.903,-177.319 L -331.667,-177.494 L -331.414,-177.646
 L -331.148,-177.772 L -330.871,-177.871 L -330.585,-177.942 L -330.294,-177.986 L -330,-178 L -329.706,-177.986
 L -329.415,-177.942 L -329.129,-177.871 L -328.852,-177.772 L -328.586,-177.646 L -328.333,-177.494 L -328.097,-177.319
 L -327.879,-177.121 L -327.681,-176.903 L -327.506,-176.667 L -327.354,-176.414 L -327.228,-176.148 L -327.129,-175.871
 L -327.058,-175.585 L -327.014,-175.294 L -327,-175 L -327.014,-174.706 L -327.058,-174.415 L -327.129,-174.129
 L -327.228,-173.852 L -327.354,-173.586 L -327.506,-173.333 L -327.681,-173.097 L -327.879,-172.879 L -328.097,-172.681
 L -328.333,-172.506 L -328.586,-172.354 L -328.852,-172.228 L -329.129,-172.129 L -329.415,-172.058 L -329.706,-172.014
 L -330,-172 L -330.294,-172.014 L -330.585,-172.058 L -330.871,-172.129 L -331.148,-172.228 L -331.414,-172.354
 L -331.667,-172.506 L -331.903,-172.681 L -332.121,-172.879 L -332.319,-173.097 L -332.494,-173.333 L -332.646,-173.586
 L -332.772,-173.852 L -332.871,-174.129 L -332.942,-174.415 L -332.986,-174.706 z
M -318,-0 L -317.986,-0.294051 L -317.942,-0.585271 L -317.871,-0.870853 L -317.772,-1.14805 L -317.646,-1.41419
 L -317.494,-1.66671 L -317.319,-1.90318 L -317.121,-2.12132 L -316.903,-2.31903 L -316.667,-2.49441 L -316.414,-2.64576
 L -316.148,-2.77164 L -315.871,-2.87082 L -315.585,-2.94236 L -315.294,-2.98555 L -315,-3 L -314.706,-2.98555
 L -314.415,-2.94236 L -314.129,-2.87082 L -313.852,-2.77164 L -313.586,-2.64576 L -313.333,-2.49441 L -313.097,-2.31903
 L -312.879,-2.12132 L -312.681,-1.90318 L -312.506,-1.66671 L -312.354,-1.41419 L -312.228,-1.14805 L -312.129,-0.870853
 L -312.058,-0.585271 L -312.014,-0.294051 L -312,-0 L -312.014,0.294051 L -312.058,0.585271 L -312.129,0.870853
 L -312.228,1.14805 L -312.354,1.41419 L -312.506,1.66671 L -312.681,1.90318 L -312.879,2.12132 L -313.097,2.31903
 L -313.333,2.49441 L -313.586,2.64576 L -313.852,2.77164 L -314.129,2.87082 L -314.415,2.94236 L -314.706,2.98555
 L -315,3 L -315.294,2.98555 L -315.585,2.94236 L -315.871,2.87082 L -316.148,2.77164 L -316.414,2.64576
 L -316.667,2.49441 L -316.903,2.31903 L -317.121,2.12132 L -317.319,1.90318 L -317.494,1.66671 L -317.646,1.41419
 L -317.772,1.14805 L -317.871,0.870853 L -317.942,0.585271 L -317.986,0.294051 z
M -300,135 L -300,125 L 300,125 L 300,135 z
M -300,70 L -300,60 L 300,60 L 300,70 z
M -300,5 L -300,-5 L 300,-5 L 300,5 z
M -300,-60 L -300,-70 L 300,-70 L 300,-60 z
M -300,-125 L -300,-135 L 300,-135 L 300,-125 z
M -113,175 L -112.986,174.706 L -112.942,174.415 L -112.871,174.129 L -112.772,173.852 L -112.646,173.586
 L -112.494,173.333 L -112.319,173.097 L -112.121,172.879 L -111.903,172.681 L -111.667,172.506 L -111.414,172.354
 L -111.148,172.228 L -110.871,172.129 L -110.585,172.058 L -110.294,172.014 L -110,172 L -109.706,172.014
 L -109.415,172.058 L -109.129,172.129 L -108.852,172.228 L -108.586,172.354 L -108.333,172.506 L -108.097,172.681
 L -107.879,172.879 L -107.681,173.097 L -107.506,173.333 L -107.354,173.586 L -107.228,173.852 L -107.129,174.129
 L -107.058,174.415 L -107.014,174.706 L -107,175 L -107.014,175.294 L -107.058,175.585 L -107.129,175.871
 L -107.228,176.148 L -107.354,176.414 L -107.506,176.667 L -107.681,176.903 L -107.879,177.121 L -108.097,177.319
 L -108.333,177.494 L -108.586,177.646 L -108.852,177.772 L -109.129,177.871 L -109.415,177.942 L -109.706,177.986
 L -110,178 L -110.294,177.986 L -110.585,177.942 L -110.871,177.871 L -111.148,177.772 L -111.414,177.646
 L -111.667,177.494 L -111.903,177.319 L -112.121,177.121 L -112.319,176.903 L -112.494,176.667 L -112.646,176.414
 L -112.772,176.148 L -112.871,175.871 L -112.942,175.585 L -112.986,175.294 z
M -113,-175 L -112.986,-175.294 L -112.942,-175.585 L -112.871,-175.871 L -112.772,-176.148 L -112.646,-176.414
 L -112.494,-176.667 L -112.319,-176.903 L -112.121,-177.121 L -111.903,-177.319 L -111.667,-177.494 L -111.414,-177.646
 L -111.148,-177.772 L -110.871,-177.871 L -110.585,-177.942 L -110.294,-177.986 L -110,-178 L -109.706,-177.986
 L -109.415,-177.942 L -109.129,-177.871 L -108.852,-177.772 L -108.586,-177.646 L -108.333,-177.494 L -108.097,-177.319
 L -107.879,-177.121 L -107.681,-176.903 L -107.506,-176.667 L -107.354,-176.414 L -107.228,-176.148 L -107.129,-175.871
 L -107.058,-175.585 L -107.014,-175.294 L -107,-175 L -107.014,-174.706 L -107.058,-174.415 L -107.129,-174.129
 L -107.228,-173.852 L -107.354,-173.586 L -107.506,-173.333 L -107.681,-173.097 L -107.879,-172.879 L -108.097,-172.681
 L -108.333,-172.506 L -108.586,-172.354 L -108.852,-172.228 L -109.129,-172.129 L -109.415,-172.058 L -109.706,-172.014
 L -110,-172 L -110.294,-172.014 L -110.585,-172.058 L -110.871,-172.129 L -111.148,-172.228 L -111.414,-172.354
 L -111.667,-172.506 L -111.903,-172.681 L -112.121,-172.879 L -112.319,-173.097 L -112.494,-173.333 L -112.646,-173.586
 L -112.772,-173.852 L -112.871,-174.129 L -112.942,-174.415 L -112.986,-174.706 z
M 107,175 L 107.014,174.706 L 107.058,174.415 L 107.129,174.129 L 107.228,173.852 L 107.354,173.586
 L 107.506,173.333 L 107.681,173.097 L 107.879,172.879 L 108.097,172.681 L 108.333,172.506 L 108.586,172.354
 L 108.852,172.228 L 109.129,172.129 L 109.415,172.058 L 109.706,172.014 L 110,172 L 110.294,172.014
 L 110.585,172.058 L 110.871,172.129 L 111.148,172.228 L 111.414,172.354 L 111.667,172.506 L 111.903,172.681
 L 112.121,172.879 L 112.319,173.097 L 112.494,173.333 L 112.646,173.586 L 112.772,173.852 L 112.871,174.129
 L 112.942,174.415 L 112.986,174.706 L 113,175 L 112.986,175.294 L 112.942,175.585 L 112.871,175.871
 L 112.772,176.148 L 112.646,176.414 L 112.494,176.667 L 112.319,176.903 L 112.121,177.121 L 111.903,177.319
 L 111.667,177.494 L 111.414,177.646 L 111.148,177.772 L 110.871,177.871 L 110.585,177.942 L 110.294,177.986
 L 110,178 L 109.706,177.986 L 109.415,177.942 L 109.129,177.871 L 108.852,177.772 L 108.586,177.646
 L 108.333,177.494 L 108.097,177.319 L 107.879,177.121 L 107.681,176.903 L 107.506,176.667 L 107.354,176.414
 L 107.228,176.148 L 107.129,175.871 L 107.058,175.585 L 107.014,175.294 z
M 107,-175 L 107.014,-175.294 L 107.058,-175.585 L 107.129,-175.871 L 107.228,-176.148 L 107.354,-176.414
 L 107.506,-176.667 L 107.681,-176.903 L 107.879,-177.121 L 108.097,-177.319 L 108.333,-177.494 L 108.586,-177.646
 L 108.852,-177.772 L 109.129,-177.871 L 109.415,-177.942 L 109.706,-177.986 L 110,-178 L 110.294,-177.986
 L 110.585,-177.942 L 110.871,-177.871 L 111.148,-177.772 L 111.414,-177.646 L 111.667,-177.494 L 111.903,-177.319
 L 112.121,-177.121 L 112.319,-176.903 L 112.494,-176.667 L 112.646,-176.414 L 112.772,-176.148 L 112.871,-175.871
 L 112.942,-175.585 L 112.986,-175.294 L 113,-175 L 112.986,-174.706 L 112.942,-174.415 L 112.871,-174.129
 L 112.772,-173.852 L 112.646,-173.586 L 112.494,-173.333 L 112.319,-173.097 L 112.121,-172.879 L 111.903,-172.681
 L 111.667,-172.506 L 111.414,-172.354 L 111.148,-172.228 L 110.871,-172.129 L 110.585,-172.058 L 110.294,-172.014
 L 110,-172 L 109.706,-172.014 L 109.415,-172.058 L 109.129,-172.129 L 108.852,-172.228 L 108.586,-172.354
 L 108.333,-172.506 L 108.097,-172.681 L 107.879,-172.879 L 107.681,-173.097 L 107.506,-173.333 L 107.354,-173.586
 L 107.228,-173.852 L 107.129,-174.129 L 107.058,-174.415 L 107.014,-174.706 z
M 312,-0 L 312.014,-0.294051 L 312.058,-0.585271 L 312.129,-0.870853 L 312.228,-1.14805 L 312.354,-1.41419
 L 312.506,-1.66671 L 312.681,-1.90318 L 312.879,-2.12132 L 313.097,-2.31903 L 313.333,-2.49441 L 313.586,-2.64576
 L 313.852,-2.77164 L 314.129,-2.87082 L 314.415,-2.94236 L 314.706,-2.98555 L 315,-3 L 315.294,-2.98555
 L 315.585,-2.94236 L 315.871,-2.87082 L 316.148,-2.77164 L 316.414,-2.64576 L 316.667,-2.49441 L 316.903,-2.31903
 L 317.121,-2.12132 L 317.319,-1.90318 L 317.494,-1.66671 L 317.646,-1.41419 L 317.772,-1.14805 L 317.871,-0.870853
 L 317.942,-0.585271 L 317.986,-0.294051 L 318,-0 L 317.986,0.294051 L 317.942,0.585271 L 317.871,0.870853
 L 317.772,1.14805 L 317.646,1.41419 L 317.494,1.66671 L 317.319,1.90318 L 317.121,2.12132 L 316.903,2.31903
 L 316.667,2.49441 L 316.414,2.64576 L 316.148,2.77164 L 315.871,2.87082 L 315.585,2.94236 L 315.294,2.98555
 L 315,3 L 314.706,2.98555 L 314.415,2.94236 L 314.129,2.87082 L 313.852,2.77164 L 313.586,2.64576
 L 313.333,2.49441 L 313.097,2.31903 L 312.879,2.12132 L 312.681,1.90318 L 312.506,1.66671 L 312.354,1.41419
 L 312.228,1.14805 L 312.129,0.870853 L 312.058,0.585271 L 312.014,0.294051 z
M 327,175 L 327.014,174.706 L 327.058,174.415 L 327.129,174.129 L 327.228,173.852 L 327.354,173.586
 L 327.506,173.333 L 327.681,173.097 L 327.879,172.879 L 328.097,172.681 L 328.333,172.506 L 328.586,172.354
 L 328.852,172.228 L 329.129,172.129 L 329.415,172.058 L 329.706,172.014 L 330,172 L 330.294,172.014
 L 330.585,172.058 L 330.871,172.129 L 331.148,172.228 L 331.414,172.354 L 331.667,172.506 L 331.903,172.681
 L 332.121,172.879 L 332.319,173.097 L 332.494,173.333 L 332.646,173.586 L 332.772,173.852 L 332.871,174.129
 L 332.942,174.415 L 332.986,174.706 L 333,175 L 332.986,175.294 L 332.942,175.585 L 332.871,175.871
 L 332.772,176.148 L 332.646,176.414 L 332.494,176.667 L 332.319,176.903 L 332.121,177.121 L 331.903,177.319
 L 331.667,177.494 L 331.414,177.646 L 331.148,177.772 L 330.871,177.871 L 330.585,177.942 L 330.294,177.986
 L 330,178 L 329.706,177.986 L 329.415,177.942 L 329.129,177.871 L 328.852,177.772 L 328.586,177.646
 L 328.333,177.494 L 328.097,177.319 L 327.879,177.121 L 327.681,176.903 L 327.506,176.667 L 327.354,176.414
 L 327.228,176.148 L 327.129,175.871 L 327.058,175.585 L 327.014,175.294 z
M 327,-175 L 327.014,-175.294 L 327.058,-175.585 L 327.129,-175.871 L 327.228,-176.148 L 327.354,-176.414
 L 327.506,-176.667 L 327.681,-176.903 L 327.879,-177.121 L 328.097,-177.319 L 328.333,-177.494 L 328.586,-177.646
 L 328.852,-177.772 L 329.129,-177.871 L 329.415,-177.942 L 329.706,-177.986 L 330,-178 L 330.294,-177.986
 L 330.585,-177.942 L 330.871,-177.871 L 331.148,-177.772 L 331.414,-177.646 L 331.667,-177.494 L 331.903,-177.319
 L 332.121,-177.121 L 332.319,-176.903 L 332.494,-176.667 L 332.646,-176.414 L 332.772,-176.148 L 332.871,-175.871
 L 332.942,-175.585 L 332.986,-175.294 L 333,-175 L 332.986,-174.706 L 332.942,-174.415 L 332.871,-174.129
 L 332.772,-173.852 L 332.646,-173.586 L 332.494,-173.333 L 332.319,-173.097 L 332.121,-172.879 L 331.903,-172.681
 L 331.667,-172.506 L 331.414,-172.354 L 331.148,-172.228 L 330.871,-172.129 L 330.585,-172.058 L 330.294,-172.014
 L 330,-172 L 329.706,-172.014 L 329.415,-172.058 L 329.129,-172.129 L 328.852,-172.228 L 328.586,-172.354
 L 328.333,-172.506 L 328.097,-172.681 L 327.879,-172.879 L 327.681,-173.097 L 327.506,-173.333 L 327.354,-173.586
 L 327.228,-173.852 L 327.129,-174.129 L 327.058,-174.415 L 327.014,-174.706 z
" stroke="black" fill="lightgray" stroke-width="0.5"/>
</svg>
