<?xml version="1.0" encoding="UTF-8" standalone="no"?>
<!-- Created with Inkscape (http://www.inkscape.org/) -->

<svg
   width="420mm"
   height="297mm"
   viewBox="0 0 420 297"
   version="1.1"
   id="svg1"
   xml:space="preserve"
   inkscape:version="1.4.2 (ebf0e940d0, 2025-05-08)"
   sodipodi:docname="display_template.svg"
   xmlns:inkscape="http://www.inkscape.org/namespaces/inkscape"
   xmlns:sodipodi="http://sodipodi.sourceforge.net/DTD/sodipodi-0.dtd"
   xmlns="http://www.w3.org/2000/svg"
   xmlns:svg="http://www.w3.org/2000/svg"><sodipodi:namedview
     id="namedview1"
     pagecolor="#ffffff"
     bordercolor="#000000"
     borderopacity="0.25"
     inkscape:showpageshadow="2"
     inkscape:pageopacity="0.0"
     inkscape:pagecheckerboard="0"
     inkscape:deskcolor="#d1d1d1"
     inkscape:document-units="mm"
     inkscape:zoom="0.17231907"
     inkscape:cx="1064.885"
     inkscape:cy="838.56068"
     inkscape:window-width="1920"
     inkscape:window-height="1003"
     inkscape:window-x="0"
     inkscape:window-y="0"
     inkscape:window-maximized="1"
     inkscape:current-layer="layer2"><inkscape:page
       x="0"
       y="0"
       width="420"
       height="297"
       id="page3"
       margin="0"
       bleed="0" /><inkscape:page
       x="-6.0159282e-14"
       y="297"
       width="420"
       height="297"
       id="page5"
       margin="0"
       bleed="0" /><inkscape:page
       x="0"
       y="-297"
       width="420"
       height="297"
       id="page6"
       margin="0"
       bleed="0" /></sodipodi:namedview><defs
     id="defs1" /><g
     inkscape:label="Cutout markers"
     inkscape:groupmode="layer"
     id="layer1"
     transform="translate(-7.319067,-652.55251)"><path
       id="rect4"
       style="fill:#008080;stroke-width:0.264583"
       d="m 42.319082,468.05231 -0.29404,0.014 -0.29094,0.0439 -0.28629,0.0713 -0.27698,0.0987 -0.26562,0.12609 -0.25321,0.15193 -0.23616,0.17518 -0.21808,0.19792 -0.19792,0.21808 -0.17467,0.23616 -0.15192,0.2527 -0.12609,0.26613 -0.0992,0.27699 -0.0708,0.28577 -0.0439,0.29094 -0.014,0.29404 0.014,0.29403 0.0439,0.29094 0.0708,0.28629 0.0992,0.27699 0.12609,0.26613 0.15192,0.2527 0.17467,0.23616 0.19792,0.21807 0.21808,0.19792 0.23616,0.17519 0.25321,0.15193 0.26562,0.12609 0.27698,0.0987 0.28629,0.0713 0.29094,0.0439 0.29404,0.014 0.29404,-0.014 0.29094,-0.0439 0.28577,-0.0713 0.27698,-0.0987 0.26614,-0.12609 0.25321,-0.15193 0.23565,-0.17519 0.21807,-0.19792 0.19792,-0.21807 0.17518,-0.23616 0.15193,-0.2527 0.12609,-0.26613 0.0992,-0.27699 0.0708,-0.28629 0.0439,-0.29094 0.014,-0.29403 -0.014,-0.29404 -0.0439,-0.29094 -0.0708,-0.28577 -0.0992,-0.27699 -0.12609,-0.26613 -0.15193,-0.2527 -0.17518,-0.23616 -0.19792,-0.21808 -0.21807,-0.19792 -0.23565,-0.17518 -0.25321,-0.15193 -0.26614,-0.12609 -0.27698,-0.0987 -0.28577,-0.0713 -0.29094,-0.0439 z m 349.999798,0 -0.294,0.014 -0.2909,0.0439 -0.2858,0.0713 -0.277,0.0987 -0.2661,0.12609 -0.2532,0.15193 -0.2357,0.17518 -0.2181,0.19792 -0.1979,0.21808 -0.1752,0.23616 -0.1519,0.2527 -0.1261,0.26613 -0.099,0.27699 -0.071,0.28577 -0.044,0.29094 -0.014,0.29404 0.014,0.29403 0.044,0.29094 0.071,0.28629 0.099,0.27699 0.1261,0.26613 0.1519,0.2527 0.1752,0.23616 0.1979,0.21807 0.2181,0.19792 0.2357,0.17519 0.2532,0.15193 0.2661,0.12609 0.277,0.0987 0.2858,0.0713 0.2909,0.0439 0.294,0.014 0.2941,-0.014 0.2909,-0.0439 0.2863,-0.0713 0.277,-0.0987 0.2656,-0.12609 0.2532,-0.15193 0.2362,-0.17519 0.2181,-0.19792 0.1979,-0.21807 0.1747,-0.23616 0.1519,-0.2527 0.1261,-0.26613 0.099,-0.27699 0.071,-0.28629 0.044,-0.29094 0.014,-0.29403 -0.014,-0.29404 -0.044,-0.29094 -0.071,-0.28577 -0.099,-0.27699 -0.1261,-0.26613 -0.1519,-0.2527 -0.1747,-0.23616 -0.1979,-0.21808 -0.2181,-0.19792 -0.2362,-0.17518 -0.2532,-0.15193 -0.2656,-0.12609 -0.277,-0.0987 -0.2863,-0.0713 -0.2909,-0.0439 z m -175.00013,15.00012 -0.29404,0.014 -0.29093,0.0439 -0.28577,0.0708 -0.27699,0.0992 -0.26613,0.12609 -0.2527,0.15193 -0.23616,0.17518 -0.21859,0.19792 -0.19741,0.21808 -0.1757,0.23564 -0.15089,0.25322 -0.12609,0.26613 -0.0992,0.27699 -0.0713,0.28577 -0.0434,0.29093 -0.0145,0.29404 0.0145,0.29404 0.0434,0.29094 0.0713,0.28629 0.0992,0.27698 0.12609,0.26562 0.15089,0.25322 0.1757,0.23616 0.19741,0.21807 0.21859,0.19792 0.23616,0.17467 0.2527,0.15244 0.26613,0.12558 0.27699,0.0992 0.28577,0.0708 0.29093,0.0439 0.29404,0.0145 0.29404,-0.0145 0.29146,-0.0439 0.28577,-0.0708 0.27698,-0.0992 0.26614,-0.12558 0.2527,-0.15244 0.23616,-0.17467 0.21807,-0.19792 0.19792,-0.21807 0.17518,-0.23616 0.15142,-0.25322 0.12609,-0.26562 0.0992,-0.27698 0.0713,-0.28629 0.0434,-0.29094 0.0145,-0.29404 -0.0145,-0.29404 -0.0434,-0.29093 -0.0713,-0.28577 -0.0992,-0.27699 -0.12609,-0.26613 -0.15142,-0.25322 -0.17518,-0.23564 -0.19792,-0.21808 -0.21807,-0.19792 -0.23616,-0.17518 -0.2527,-0.15193 -0.26614,-0.12609 -0.27698,-0.0992 -0.28577,-0.0708 -0.29146,-0.0439 z M 82.319222,501.05236 v 600.00014 h 9.99991 V 501.05236 Z m 64.999668,0 v 600.00014 h 9.99991 V 501.05236 Z m 65.00017,0 v 600.00014 h 9.99991 V 501.05236 Z m 65.00017,0 v 600.00014 h 9.9999 V 501.05236 Z m 64.99965,0 v 600.00014 h 9.9999 V 501.05236 Z m -299.999798,186.99996 -0.29404,0.014 -0.29094,0.0439 -0.28629,0.0713 -0.27698,0.0987 -0.26562,0.12609 -0.25321,0.15193 -0.23616,0.17518 -0.21808,0.19792 -0.19792,0.21808 -0.17467,0.23616 -0.15192,0.2527 -0.12609,0.26613 -0.0992,0.27699 -0.0708,0.28577 -0.0439,0.29093 -0.014,0.29404 0.014,0.29404 0.0439,0.29094 0.0708,0.28629 0.0992,0.27698 0.12609,0.26614 0.15192,0.2527 0.17467,0.23616 0.19792,0.21807 0.21808,0.19792 0.23616,0.17519 0.25321,0.15192 0.26562,0.12609 0.27698,0.0987 0.28629,0.0713 0.29094,0.0439 0.29404,0.014 0.29404,-0.014 0.29094,-0.0439 0.28577,-0.0713 0.27698,-0.0987 0.26614,-0.12609 0.25321,-0.15192 0.23565,-0.17519 0.21807,-0.19792 0.19792,-0.21807 0.17518,-0.23616 0.15193,-0.2527 0.12609,-0.26614 0.0992,-0.27698 0.0708,-0.28629 0.0439,-0.29094 0.014,-0.29404 -0.014,-0.29404 -0.0439,-0.29093 -0.0708,-0.28577 -0.0992,-0.27699 -0.12609,-0.26613 -0.15193,-0.2527 -0.17518,-0.23616 -0.19792,-0.21808 -0.21807,-0.19792 -0.23565,-0.17518 -0.25321,-0.15193 -0.26614,-0.12609 -0.27698,-0.0987 -0.28577,-0.0713 -0.29094,-0.0439 z m 349.999798,0 -0.294,0.014 -0.2909,0.0439 -0.2858,0.0713 -0.277,0.0987 -0.2661,0.12609 -0.2532,0.15193 -0.2357,0.17518 -0.2181,0.19792 -0.1979,0.21808 -0.1752,0.23616 -0.1519,0.2527 -0.1261,0.26613 -0.099,0.27699 -0.071,0.28577 -0.044,0.29093 -0.014,0.29404 0.014,0.29404 0.044,0.29094 0.071,0.28629 0.099,0.27698 0.1261,0.26614 0.1519,0.2527 0.1752,0.23616 0.1979,0.21807 0.2181,0.19792 0.2357,0.17519 0.2532,0.15192 0.2661,0.12609 0.277,0.0987 0.2858,0.0713 0.2909,0.0439 0.294,0.014 0.2941,-0.014 0.2909,-0.0439 0.2863,-0.0713 0.277,-0.0987 0.2656,-0.12609 0.2532,-0.15192 0.2362,-0.17519 0.2181,-0.19792 0.1979,-0.21807 0.1747,-0.23616 0.1519,-0.2527 0.1261,-0.26614 0.099,-0.27698 0.071,-0.28629 0.044,-0.29094 0.014,-0.29404 -0.014,-0.29404 -0.044,-0.29093 -0.071,-0.28577 -0.099,-0.27699 -0.1261,-0.26613 -0.1519,-0.2527 -0.1747,-0.23616 -0.1979,-0.21808 -0.2181,-0.19792 -0.2362,-0.17518 -0.2532,-0.15193 -0.2656,-0.12609 -0.277,-0.0987 -0.2863,-0.0713 -0.2909,-0.0439 z M 42.319082,908.0523 l -0.29404,0.014 -0.29094,0.044 -0.28629,0.071 -0.27698,0.099 -0.26562,0.1261 -0.25321,0.1519 -0.23616,0.1752 -0.21808,0.1979 -0.19792,0.2181 -0.17467,0.2361 -0.15192,0.2527 -0.12609,0.2662 -0.0992,0.277 -0.0708,0.2857 -0.0439,0.291 -0.014,0.294 0.014,0.294 0.0439,0.291 0.0708,0.2863 0.0992,0.277 0.12609,0.2661 0.15192,0.2527 0.17467,0.2362 0.19792,0.218 0.21808,0.1979 0.23616,0.1752 0.25321,0.152 0.26562,0.126 0.27698,0.099 0.28629,0.071 0.29094,0.044 0.29404,0.014 0.29404,-0.014 0.29094,-0.044 0.28577,-0.071 0.27698,-0.099 0.26614,-0.126 0.25321,-0.152 0.23565,-0.1752 0.21807,-0.1979 0.19792,-0.218 0.17518,-0.2362 0.15193,-0.2527 0.12609,-0.2661 0.0992,-0.277 0.0708,-0.2863 0.0439,-0.291 0.014,-0.294 -0.014,-0.294 -0.0439,-0.291 -0.0708,-0.2857 -0.0992,-0.277 -0.12609,-0.2662 -0.15193,-0.2527 -0.17518,-0.2361 -0.19792,-0.2181 -0.21807,-0.1979 -0.23565,-0.1752 -0.25321,-0.1519 -0.26614,-0.1261 -0.27698,-0.099 -0.28577,-0.071 -0.29094,-0.044 z m 349.999798,0 -0.294,0.014 -0.2909,0.044 -0.2858,0.071 -0.277,0.099 -0.2661,0.1261 -0.2532,0.1519 -0.2357,0.1752 -0.2181,0.1979 -0.1979,0.2181 -0.1752,0.2361 -0.1519,0.2527 -0.1261,0.2662 -0.099,0.277 -0.071,0.2857 -0.044,0.291 -0.014,0.294 0.014,0.294 0.044,0.291 0.071,0.2863 0.099,0.277 0.1261,0.2661 0.1519,0.2527 0.1752,0.2362 0.1979,0.218 0.2181,0.1979 0.2357,0.1752 0.2532,0.152 0.2661,0.126 0.277,0.099 0.2858,0.071 0.2909,0.044 0.294,0.014 0.2941,-0.014 0.2909,-0.044 0.2863,-0.071 0.277,-0.099 0.2656,-0.126 0.2532,-0.152 0.2362,-0.1752 0.2181,-0.1979 0.1979,-0.218 0.1747,-0.2362 0.1519,-0.2527 0.1261,-0.2661 0.099,-0.277 0.071,-0.2863 0.044,-0.291 0.014,-0.294 -0.014,-0.294 -0.044,-0.291 -0.071,-0.2857 -0.099,-0.277 -0.1261,-0.2662 -0.1519,-0.2527 -0.1747,-0.2361 -0.1979,-0.2181 -0.2181,-0.1979 -0.2362,-0.1752 -0.2532,-0.1519 -0.2656,-0.1261 -0.277,-0.099 -0.2863,-0.071 -0.2909,-0.044 z m -175.00013,205 -0.29404,0.014 -0.29093,0.044 -0.28577,0.071 -0.27699,0.099 -0.26613,0.126 -0.2527,0.152 -0.23616,0.1752 -0.21859,0.1979 -0.19741,0.2181 -0.1757,0.2361 -0.15089,0.2527 -0.12609,0.2661 -0.0992,0.277 -0.0713,0.2863 -0.0434,0.291 -0.0145,0.294 0.0145,0.294 0.0434,0.291 0.0713,0.2857 0.0992,0.277 0.12609,0.2662 0.15089,0.2527 0.1757,0.2361 0.19741,0.2181 0.21859,0.1979 0.23616,0.1752 0.2527,0.1519 0.26613,0.1261 0.27699,0.099 0.28577,0.071 0.29093,0.044 0.29404,0.014 0.29404,-0.014 0.29146,-0.044 0.28577,-0.071 0.27698,-0.099 0.26614,-0.1261 0.2527,-0.1519 0.23616,-0.1752 0.21807,-0.1979 0.19792,-0.2181 0.17518,-0.2361 0.15142,-0.2527 0.12609,-0.2662 0.0992,-0.277 0.0713,-0.2857 0.0434,-0.291 0.0145,-0.294 -0.0145,-0.294 -0.0434,-0.291 -0.0713,-0.2863 -0.0992,-0.277 -0.12609,-0.2661 -0.15142,-0.2527 -0.17518,-0.2361 -0.19792,-0.2181 -0.21807,-0.1979 -0.23616,-0.1752 -0.2527,-0.152 -0.26614,-0.126 -0.27698,-0.099 -0.28577,-0.071 -0.29146,-0.044 z m -174.999668,15.0001 -0.29404,0.014 -0.29094,0.044 -0.28629,0.071 -0.27698,0.099 -0.26562,0.1261 -0.25321,0.1519 -0.23616,0.1752 -0.21808,0.1979 -0.19792,0.2181 -0.17467,0.2361 -0.15192,0.2527 -0.12609,0.2662 -0.0992,0.277 -0.0708,0.2857 -0.0439,0.291 -0.014,0.294 0.014,0.294 0.0439,0.291 0.0708,0.2863 0.0992,0.277 0.12609,0.2661 0.15192,0.2527 0.17467,0.2361 0.19792,0.2181 0.21808,0.1979 0.23616,0.1752 0.25321,0.152 0.26562,0.126 0.27698,0.099 0.28629,0.071 0.29094,0.044 0.29404,0.014 0.29404,-0.014 0.29094,-0.044 0.28577,-0.071 0.27698,-0.099 0.26614,-0.126 0.25321,-0.152 0.23565,-0.1752 0.21807,-0.1979 0.19792,-0.2181 0.17518,-0.2361 0.15193,-0.2527 0.12609,-0.2661 0.0992,-0.277 0.0708,-0.2863 0.0439,-0.291 0.014,-0.294 -0.014,-0.294 -0.0439,-0.291 -0.0708,-0.2857 -0.0992,-0.277 -0.12609,-0.2662 -0.15193,-0.2527 -0.17518,-0.2361 -0.19792,-0.2181 -0.21807,-0.1979 -0.23565,-0.1752 -0.25321,-0.1519 -0.26614,-0.1261 -0.27698,-0.099 -0.28577,-0.071 -0.29094,-0.044 z m 349.999798,0 -0.294,0.014 -0.2909,0.044 -0.2858,0.071 -0.277,0.099 -0.2661,0.1261 -0.2532,0.1519 -0.2357,0.1752 -0.2181,0.1979 -0.1979,0.2181 -0.1752,0.2361 -0.1519,0.2527 -0.1261,0.2662 -0.099,0.277 -0.071,0.2857 -0.044,0.291 -0.014,0.294 0.014,0.294 0.044,0.291 0.071,0.2863 0.099,0.277 0.1261,0.2661 0.1519,0.2527 0.1752,0.2361 0.1979,0.2181 0.2181,0.1979 0.2357,0.1752 0.2532,0.152 0.2661,0.126 0.277,0.099 0.2858,0.071 0.2909,0.044 0.294,0.014 0.2941,-0.014 0.2909,-0.044 0.2863,-0.071 0.277,-0.099 0.2656,-0.126 0.2532,-0.152 0.2362,-0.1752 0.2181,-0.1979 0.1979,-0.2181 0.1747,-0.2361 0.1519,-0.2527 0.1261,-0.2661 0.099,-0.277 0.071,-0.2863 0.044,-0.291 0.014,-0.294 -0.014,-0.294 -0.044,-0.291 -0.071,-0.2857 -0.099,-0.277 -0.1261,-0.2662 -0.1519,-0.2527 -0.1747,-0.2361 -0.1979,-0.2181 -0.2181,-0.1979 -0.2362,-0.1752 -0.2532,-0.1519 -0.2656,-0.1261 -0.277,-0.099 -0.2863,-0.071 -0.2909,-0.044 z"
       inkscape:label="Holes" /><path
       d="m 27.319073,468.05249 -0.294,0.014 -0.291,0.044 -0.286,0.071 -0.277,0.099 -0.266,0.126 -0.253,0.152 -0.236,0.175 -0.218,0.198 -0.198,0.218 -0.175,0.236 -0.152,0.253 -0.126,0.266 -0.099,0.277 -0.071,0.286 -0.044,0.291 -0.014,0.294 0.014,0.294 0.044,0.291 0.071,0.286 0.099,0.277 0.126,0.266 0.152,0.253 0.175,0.236 0.198,0.218 0.218,0.198 0.236,0.175 0.253,0.152 0.266,0.126 0.277,0.099 0.286,0.071 0.291,0.044 0.294,0.014 0.294,-0.014 0.291,-0.044 0.286,-0.071 0.277,-0.099 0.266,-0.126 0.253,-0.152 0.236,-0.175 0.218,-0.198 0.198,-0.218 0.175,-0.236 0.152,-0.253 0.126,-0.266 0.099,-0.277 0.071,-0.286 0.044,-0.291 0.014,-0.294 -0.014,-0.294 -0.044,-0.291 -0.071,-0.286 -0.099,-0.277 -0.126,-0.266 -0.152,-0.253 -0.175,-0.236 -0.198,-0.218 -0.218,-0.198 -0.236,-0.175 -0.253,-0.152 -0.266,-0.126 -0.277,-0.099 -0.286,-0.071 -0.291,-0.044 z m 189.999997,0 -0.29405,0.014 -0.29122,0.044 -0.28558,0.071 -0.2772,0.099 -0.26614,0.126 -0.25252,0.152 -0.23647,0.175 -0.21814,0.198 -0.19771,0.218 -0.17538,0.236 -0.15135,0.253 -0.12588,0.266 -0.0992,0.277 -0.0715,0.286 -0.0432,0.291 -0.0145,0.294 0.0145,0.294 0.0432,0.291 0.0715,0.286 0.0992,0.277 0.12588,0.266 0.15135,0.253 0.17538,0.236 0.19771,0.218 0.21814,0.198 0.23647,0.175 0.25252,0.152 0.26614,0.126 0.2772,0.099 0.28558,0.071 0.29122,0.044 0.29405,0.014 0.29405,-0.014 0.29122,-0.044 0.28558,-0.071 0.2772,-0.099 0.26614,-0.126 0.25252,-0.152 0.23647,-0.175 0.21814,-0.198 0.19771,-0.218 0.17538,-0.236 0.15135,-0.253 0.12588,-0.266 0.0992,-0.277 0.0715,-0.286 0.0432,-0.291 0.0145,-0.294 -0.0145,-0.294 -0.0432,-0.291 -0.0715,-0.286 -0.0992,-0.277 -0.12588,-0.266 -0.15135,-0.253 -0.17538,-0.236 -0.19771,-0.218 -0.21814,-0.198 -0.23647,-0.175 -0.25252,-0.152 -0.26614,-0.126 -0.2772,-0.099 -0.28558,-0.071 -0.29122,-0.044 z m 190,0 -0.294,0.014 -0.291,0.044 -0.286,0.071 -0.277,0.099 -0.266,0.126 -0.253,0.152 -0.236,0.175 -0.218,0.198 -0.198,0.218 -0.175,0.236 -0.152,0.253 -0.126,0.266 -0.099,0.277 -0.071,0.286 -0.044,0.291 -0.014,0.294 0.014,0.294 0.044,0.291 0.071,0.286 0.099,0.277 0.126,0.266 0.152,0.253 0.175,0.236 0.198,0.218 0.218,0.198 0.236,0.175 0.253,0.152 0.266,0.126 0.277,0.099 0.286,0.071 0.291,0.044 0.294,0.014 0.294,-0.014 0.291,-0.044 0.286,-0.071 0.277,-0.099 0.266,-0.126 0.253,-0.152 0.236,-0.175 0.218,-0.198 0.198,-0.218 0.175,-0.236 0.152,-0.253 0.126,-0.266 0.099,-0.277 0.071,-0.286 0.044,-0.291 0.014,-0.294 -0.014,-0.294 -0.044,-0.291 -0.071,-0.286 -0.099,-0.277 -0.126,-0.266 -0.152,-0.253 -0.175,-0.236 -0.198,-0.218 -0.218,-0.198 -0.236,-0.175 -0.253,-0.152 -0.266,-0.126 -0.277,-0.099 -0.286,-0.071 -0.291,-0.044 z m -379.999997,220 -0.294,0.014 -0.291,0.044 -0.286,0.071 -0.277,0.099 -0.266,0.126 -0.253,0.152 -0.236,0.175 -0.218,0.198 -0.198,0.218 -0.175,0.236 -0.152,0.253 -0.126,0.266 -0.099,0.277 -0.071,0.286 -0.044,0.291 -0.014,0.294 0.014,0.294 0.044,0.291 0.071,0.286 0.099,0.277 0.126,0.266 0.152,0.253 0.175,0.236 0.198,0.218 0.218,0.198 0.236,0.175 0.253,0.152 0.266,0.126 0.277,0.099 0.286,0.071 0.291,0.044 0.294,0.014 0.294,-0.014 0.291,-0.044 0.286,-0.071 0.277,-0.099 0.266,-0.126 0.253,-0.152 0.236,-0.175 0.218,-0.198 0.198,-0.218 0.175,-0.236 0.152,-0.253 0.126,-0.266 0.099,-0.277 0.071,-0.286 0.044,-0.291 0.014,-0.294 -0.014,-0.294 -0.044,-0.291 -0.071,-0.286 -0.099,-0.277 -0.126,-0.266 -0.152,-0.253 -0.175,-0.236 -0.198,-0.218 -0.218,-0.198 -0.236,-0.175 -0.253,-0.152 -0.266,-0.126 -0.277,-0.099 -0.286,-0.071 -0.291,-0.044 z m 379.999997,0 -0.294,0.014 -0.291,0.044 -0.286,0.071 -0.277,0.099 -0.266,0.126 -0.253,0.152 -0.236,0.175 -0.218,0.198 -0.198,0.218 -0.175,0.236 -0.152,0.253 -0.126,0.266 -0.099,0.277 -0.071,0.286 -0.044,0.291 -0.014,0.294 0.014,0.294 0.044,0.291 0.071,0.286 0.099,0.277 0.126,0.266 0.152,0.253 0.175,0.236 0.198,0.218 0.218,0.198 0.236,0.175 0.253,0.152 0.266,0.126 0.277,0.099 0.286,0.071 0.291,0.044 0.294,0.014 0.294,-0.014 0.291,-0.044 0.286,-0.071 0.277,-0.099 0.266,-0.126 0.253,-0.152 0.236,-0.175 0.218,-0.198 0.198,-0.218 0.175,-0.236 0.152,-0.253 0.126,-0.266 0.099,-0.277 0.071,-0.286 0.044,-0.291 0.014,-0.294 -0.014,-0.294 -0.044,-0.291 -0.071,-0.286 -0.099,-0.277 -0.126,-0.266 -0.152,-0.253 -0.175,-0.236 -0.198,-0.218 -0.218,-0.198 -0.236,-0.175 -0.253,-0.152 -0.266,-0.126 -0.277,-0.099 -0.286,-0.071 -0.291,-0.044 z m -379.999997,220 -0.294,0.014 -0.291,0.044 -0.286,0.071 -0.277,0.099 -0.266,0.126 -0.253,0.152 -0.236,0.175 -0.218,0.198 -0.198,0.218 -0.175,0.236 -0.152,0.253 -0.126,0.266 -0.099,0.277 -0.071,0.286 -0.044,0.291 -0.014,0.294 0.014,0.294 0.044,0.291 0.071,0.286 0.099,0.277 0.126,0.266 0.152,0.253 0.175,0.236 0.198,0.218 0.218,0.198 0.236,0.175 0.253,0.152 0.266,0.126 0.277,0.099 0.286,0.071 0.291,0.044 0.294,0.014 0.294,-0.014 0.291,-0.044 0.286,-0.071 0.277,-0.099 0.266,-0.126 0.253,-0.152 0.236,-0.175 0.218,-0.198 0.198,-0.218 0.175,-0.236 0.152,-0.253 0.126,-0.266 0.099,-0.277 0.071,-0.286 0.044,-0.291 0.014,-0.294 -0.014,-0.294 -0.044,-0.291 -0.071,-0.286 -0.099,-0.277 -0.126,-0.266 -0.152,-0.253 -0.175,-0.236 -0.198,-0.218 -0.218,-0.198 -0.236,-0.175 -0.253,-0.152 -0.266,-0.126 -0.277,-0.099 -0.286,-0.071 -0.291,-0.044 z m 379.999997,0 -0.294,0.014 -0.291,0.044 -0.286,0.071 -0.277,0.099 -0.266,0.126 -0.253,0.152 -0.236,0.175 -0.218,0.198 -0.198,0.218 -0.175,0.236 -0.152,0.253 -0.126,0.266 -0.099,0.277 -0.071,0.286 -0.044,0.291 -0.014,0.294 0.014,0.294 0.044,0.291 0.071,0.286 0.099,0.277 0.126,0.266 0.152,0.253 0.175,0.236 0.198,0.218 0.218,0.198 0.236,0.175 0.253,0.152 0.266,0.126 0.277,0.099 0.286,0.071 0.291,0.044 0.294,0.014 0.294,-0.014 0.291,-0.044 0.286,-0.071 0.277,-0.099 0.266,-0.126 0.253,-0.152 0.236,-0.175 0.218,-0.198 0.198,-0.218 0.175,-0.236 0.152,-0.253 0.126,-0.266 0.099,-0.277 0.071,-0.286 0.044,-0.291 0.014,-0.294 -0.014,-0.294 -0.044,-0.291 -0.071,-0.286 -0.099,-0.277 -0.126,-0.266 -0.152,-0.253 -0.175,-0.236 -0.198,-0.218 -0.218,-0.198 -0.236,-0.175 -0.253,-0.152 -0.266,-0.126 -0.277,-0.099 -0.286,-0.071 -0.291,-0.044 z m -379.999997,220.00001 -0.294,0.014 -0.291,0.044 -0.286,0.071 -0.277,0.099 -0.266,0.126 -0.253,0.152 -0.236,0.175 -0.218,0.198 -0.198,0.218 -0.175,0.236 -0.152,0.253 -0.126,0.266 -0.099,0.277 -0.071,0.286 -0.044,0.291 -0.014,0.294 0.014,0.294 0.044,0.291 0.071,0.286 0.099,0.277 0.126,0.266 0.152,0.253 0.175,0.236 0.198,0.218 0.218,0.198 0.236,0.175 0.253,0.152 0.266,0.126 0.277,0.099 0.286,0.071 0.291,0.044 0.294,0.014 0.294,-0.014 0.291,-0.044 0.286,-0.071 0.277,-0.099 0.266,-0.126 0.253,-0.152 0.236,-0.175 0.218,-0.198 0.198,-0.218 0.175,-0.236 0.152,-0.253 0.126,-0.266 0.099,-0.277 0.071,-0.286 0.044,-0.291 0.014,-0.294 -0.014,-0.294 -0.044,-0.291 -0.071,-0.286 -0.099,-0.277 -0.126,-0.266 -0.152,-0.253 -0.175,-0.236 -0.198,-0.218 -0.218,-0.198 -0.236,-0.175 -0.253,-0.152 -0.266,-0.126 -0.277,-0.099 -0.286,-0.071 -0.291,-0.044 z m 189.999997,0 -0.29405,0.014 -0.29122,0.044 -0.28558,0.071 -0.2772,0.099 -0.26614,0.126 -0.25252,0.152 -0.23647,0.175 -0.21814,0.198 -0.19771,0.218 -0.17538,0.236 -0.15135,0.253 -0.12588,0.266 -0.0992,0.277 -0.0715,0.286 -0.0432,0.291 -0.0145,0.294 0.0145,0.294 0.0432,0.291 0.0715,0.286 0.0992,0.277 0.12588,0.266 0.15135,0.253 0.17538,0.236 0.19771,0.218 0.21814,0.198 0.23647,0.175 0.25252,0.152 0.26614,0.126 0.2772,0.099 0.28558,0.071 0.29122,0.044 0.29405,0.014 0.29405,-0.014 0.29122,-0.044 0.28558,-0.071 0.2772,-0.099 0.26614,-0.126 0.25252,-0.152 0.23647,-0.175 0.21814,-0.198 0.19771,-0.218 0.17538,-0.236 0.15135,-0.253 0.12588,-0.266 0.0992,-0.277 0.0715,-0.286 0.0432,-0.291 0.0145,-0.294 -0.0145,-0.294 -0.0432,-0.291 -0.0715,-0.286 -0.0992,-0.277 -0.12588,-0.266 -0.15135,-0.253 -0.17538,-0.236 -0.19771,-0.218 -0.21814,-0.198 -0.23647,-0.175 -0.25252,-0.152 -0.26614,-0.126 -0.2772,-0.099 -0.28558,-0.071 -0.29122,-0.044 z m 190,0 -0.294,0.014 -0.291,0.044 -0.286,0.071 -0.277,0.099 -0.266,0.126 -0.253,0.152 -0.236,0.175 -0.218,0.198 -0.198,0.218 -0.175,0.236 -0.152,0.253 -0.126,0.266 -0.099,0.277 -0.071,0.286 -0.044,0.291 -0.014,0.294 0.014,0.294 0.044,0.291 0.071,0.286 0.099,0.277 0.126,0.266 0.152,0.253 0.175,0.236 0.198,0.218 0.218,0.198 0.236,0.175 0.253,0.152 0.266,0.126 0.277,0.099 0.286,0.071 0.291,0.044 0.294,0.014 0.294,-0.014 0.291,-0.044 0.286,-0.071 0.277,-0.099 0.266,-0.126 0.253,-0.152 0.236,-0.175 0.218,-0.198 0.198,-0.218 0.175,-0.236 0.152,-0.253 0.126,-0.266 0.099,-0.277 0.071,-0.286 0.044,-0.291 0.014,-0.294 -0.014,-0.294 -0.044,-0.291 -0.071,-0.286 -0.099,-0.277 -0.126,-0.266 -0.152,-0.253 -0.175,-0.236 -0.198,-0.218 -0.218,-0.198 -0.236,-0.175 -0.253,-0.152 -0.266,-0.126 -0.277,-0.099 -0.286,-0.071 -0.291,-0.044 z"
       stroke="#000000"
       fill="#d3d3d3"
       stroke-width="0.5"
       id="path1"
       inkscape:label="Knobs" /></g><g
     inkscape:groupmode="layer"
     id="layer2"
     inkscape:label="Layer 1" /></svg>
