<?xml version="1.0" standalone="no"?>
<!DOCTYPE svg PUBLIC "-//W3C//DTD SVG 1.1//EN" "http://www.w3.org/Graphics/SVG/1.1/DTD/svg11.dtd">
<svg width="366mm" height="206mm" viewBox="-183 -103 366 206" xmlns="http://www.w3.org/2000/svg" version="1.1">
<title>OpenSCAD Model</title>
<path d="
M -183,100 L -182.986,100.294 L -182.942,100.585 L -182.871,100.871 L -182.772,101.148 L -182.646,101.414
 L -182.494,101.667 L -182.319,101.903 L -182.121,102.121 L -181.903,102.319 L -181.667,102.494 L -181.414,102.646
 L -181.148,102.772 L -180.871,102.871 L -180.585,102.942 L -180.294,102.986 L -180,103 L -179.706,102.986
 L -179.415,102.942 L -179.129,102.871 L -178.852,102.772 L -178.586,102.646 L -178.333,102.494 L -178.097,102.319
 L -177.879,102.121 L -177.681,101.903 L -177.506,101.667 L -177.354,101.414 L -177.228,101.148 L -177.129,100.871
 L -177.058,100.585 L -177.014,100.294 L -177,100 L -177.014,99.7059 L -177.058,99.4147 L -177.129,99.1291
 L -177.228,98.8519 L -177.354,98.5858 L -177.506,98.3333 L -177.681,98.0968 L -177.879,97.8787 L -178.097,97.681
 L -178.333,97.5056 L -178.586,97.3542 L -178.852,97.2284 L -179.129,97.1292 L -179.415,97.0576 L -179.706,97.0144
 L -180,97 L -180.294,97.0144 L -180.585,97.0576 L -180.871,97.1292 L -181.148,97.2284 L -181.414,97.3542
 L -181.667,97.5056 L -181.903,97.681 L -182.121,97.8787 L -182.319,98.0968 L -182.494,98.3333 L -182.646,98.5858
 L -182.772,98.8519 L -182.871,99.1291 L -182.942,99.4147 L -182.986,99.7059 z
M -183,-100 L -182.986,-99.7059 L -182.942,-99.4147 L -182.871,-99.1291 L -182.772,-98.8519 L -182.646,-98.5858
 L -182.494,-98.3333 L -182.319,-98.0968 L -182.121,-97.8787 L -181.903,-97.681 L -181.667,-97.5056 L -181.414,-97.3542
 L -181.148,-97.2284 L -180.871,-97.1292 L -180.585,-97.0576 L -180.294,-97.0144 L -180,-97 L -179.706,-97.0144
 L -179.415,-97.0576 L -179.129,-97.1292 L -178.852,-97.2284 L -178.586,-97.3542 L -178.333,-97.5056 L -178.097,-97.681
 L -177.879,-97.8787 L -177.681,-98.0968 L -177.506,-98.3333 L -177.354,-98.5858 L -177.228,-98.8519 L -177.129,-99.1291
 L -177.058,-99.4147 L -177.014,-99.7059 L -177,-100 L -177.014,-100.294 L -177.058,-100.585 L -177.129,-100.871
 L -177.228,-101.148 L -177.354,-101.414 L -177.506,-101.667 L -177.681,-101.903 L -177.879,-102.121 L -178.097,-102.319
 L -178.333,-102.494 L -178.586,-102.646 L -178.852,-102.772 L -179.129,-102.871 L -179.415,-102.942 L -179.706,-102.986
 L -180,-103 L -180.294,-102.986 L -180.585,-102.942 L -180.871,-102.871 L -181.148,-102.772 L -181.414,-102.646
 L -181.667,-102.494 L -181.903,-102.319 L -182.121,-102.121 L -182.319,-101.903 L -182.494,-101.667 L -182.646,-101.414
 L -182.772,-101.148 L -182.871,-100.871 L -182.942,-100.585 L -182.986,-100.294 z
M -3,100 L -2.98555,100.294 L -2.94236,100.585 L -2.87082,100.871 L -2.77164,101.148 L -2.64576,101.414
 L -2.49441,101.667 L -2.31903,101.903 L -2.12132,102.121 L -1.90318,102.319 L -1.66671,102.494 L -1.41419,102.646
 L -1.14805,102.772 L -0.870853,102.871 L -0.585271,102.942 L -0.294051,102.986 L 0,103 L 0.294051,102.986
 L 0.585271,102.942 L 0.870853,102.871 L 1.14805,102.772 L 1.41419,102.646 L 1.66671,102.494 L 1.90318,102.319
 L 2.12132,102.121 L 2.31903,101.903 L 2.49441,101.667 L 2.64576,101.414 L 2.77164,101.148 L 2.87082,100.871
 L 2.94236,100.585 L 2.98555,100.294 L 3,100 L 2.98555,99.7059 L 2.94236,99.4147 L 2.87082,99.1291
 L 2.77164,98.8519 L 2.64576,98.5858 L 2.49441,98.3333 L 2.31903,98.0968 L 2.12132,97.8787 L 1.90318,97.681
 L 1.66671,97.5056 L 1.41419,97.3542 L 1.14805,97.2284 L 0.870853,97.1292 L 0.585271,97.0576 L 0.294051,97.0144
 L 0,97 L -0.294051,97.0144 L -0.585271,97.0576 L -0.870853,97.1292 L -1.14805,97.2284 L -1.41419,97.3542
 L -1.66671,97.5056 L -1.90318,97.681 L -2.12132,97.8787 L -2.31903,98.0968 L -2.49441,98.3333 L -2.64576,98.5858
 L -2.77164,98.8519 L -2.87082,99.1291 L -2.94236,99.4147 L -2.98555,99.7059 z
M -3,-100 L -2.98555,-99.7059 L -2.94236,-99.4147 L -2.87082,-99.1291 L -2.77164,-98.8519 L -2.64576,-98.5858
 L -2.49441,-98.3333 L -2.31903,-98.0968 L -2.12132,-97.8787 L -1.90318,-97.681 L -1.66671,-97.5056 L -1.41419,-97.3542
 L -1.14805,-97.2284 L -0.870853,-97.1292 L -0.585271,-97.0576 L -0.294051,-97.0144 L 0,-97 L 0.294051,-97.0144
 L 0.585271,-97.0576 L 0.870853,-97.1292 L 1.14805,-97.2284 L 1.41419,-97.3542 L 1.66671,-97.5056 L 1.90318,-97.681
 L 2.12132,-97.8787 L 2.31903,-98.0968 L 2.49441,-98.3333 L 2.64576,-98.5858 L 2.77164,-98.8519 L 2.87082,-99.1291
 L 2.94236,-99.4147 L 2.98555,-99.7059 L 3,-100 L 2.98555,-100.294 L 2.94236,-100.585 L 2.87082,-100.871
 L 2.77164,-101.148 L 2.64576,-101.414 L 2.49441,-101.667 L 2.31903,-101.903 L 2.12132,-102.121 L 1.90318,-102.319
 L 1.66671,-102.494 L 1.41419,-102.646 L 1.14805,-102.772 L 0.870853,-102.871 L 0.585271,-102.942 L 0.294051,-102.986
 L 0,-103 L -0.294051,-102.986 L -0.585271,-102.942 L -0.870853,-102.871 L -1.14805,-102.772 L -1.41419,-102.646
 L -1.66671,-102.494 L -1.90318,-102.319 L -2.12132,-102.121 L -2.31903,-101.903 L -2.49441,-101.667 L -2.64576,-101.414
 L -2.77164,-101.148 L -2.87082,-100.871 L -2.94236,-100.585 L -2.98555,-100.294 z
M 177,100 L 177.014,100.294 L 177.058,100.585 L 177.129,100.871 L 177.228,101.148 L 177.354,101.414
 L 177.506,101.667 L 177.681,101.903 L 177.879,102.121 L 178.097,102.319 L 178.333,102.494 L 178.586,102.646
 L 178.852,102.772 L 179.129,102.871 L 179.415,102.942 L 179.706,102.986 L 180,103 L 180.294,102.986
 L 180.585,102.942 L 180.871,102.871 L 181.148,102.772 L 181.414,102.646 L 181.667,102.494 L 181.903,102.319
 L 182.121,102.121 L 182.319,101.903 L 182.494,101.667 L 182.646,101.414 L 182.772,101.148 L 182.871,100.871
 L 182.942,100.585 L 182.986,100.294 L 183,100 L 182.986,99.7059 L 182.942,99.4147 L 182.871,99.1291
 L 182.772,98.8519 L 182.646,98.5858 L 182.494,98.3333 L 182.319,98.0968 L 182.121,97.8787 L 181.903,97.681
 L 181.667,97.5056 L 181.414,97.3542 L 181.148,97.2284 L 180.871,97.1292 L 180.585,97.0576 L 180.294,97.0144
 L 180,97 L 179.706,97.0144 L 179.415,97.0576 L 179.129,97.1292 L 178.852,97.2284 L 178.586,97.3542
 L 178.333,97.5056 L 178.097,97.681 L 177.879,97.8787 L 177.681,98.0968 L 177.506,98.3333 L 177.354,98.5858
 L 177.228,98.8519 L 177.129,99.1291 L 177.058,99.4147 L 177.014,99.7059 z
M 177,-100 L 177.014,-99.7059 L 177.058,-99.4147 L 177.129,-99.1291 L 177.228,-98.8519 L 177.354,-98.5858
 L 177.506,-98.3333 L 177.681,-98.0968 L 177.879,-97.8787 L 178.097,-97.681 L 178.333,-97.5056 L 178.586,-97.3542
 L 178.852,-97.2284 L 179.129,-97.1292 L 179.415,-97.0576 L 179.706,-97.0144 L 180,-97 L 180.294,-97.0144
 L 180.585,-97.0576 L 180.871,-97.1292 L 181.148,-97.2284 L 181.414,-97.3542 L 181.667,-97.5056 L 181.903,-97.681
 L 182.121,-97.8787 L 182.319,-98.0968 L 182.494,-98.3333 L 182.646,-98.5858 L 182.772,-98.8519 L 182.871,-99.1291
 L 182.942,-99.4147 L 182.986,-99.7059 L 183,-100 L 182.986,-100.294 L 182.942,-100.585 L 182.871,-100.871
 L 182.772,-101.148 L 182.646,-101.414 L 182.494,-101.667 L 182.319,-101.903 L 182.121,-102.121 L 181.903,-102.319
 L 181.667,-102.494 L 181.414,-102.646 L 181.148,-102.772 L 180.871,-102.871 L 180.585,-102.942 L 180.294,-102.986
 L 180,-103 L 179.706,-102.986 L 179.415,-102.942 L 179.129,-102.871 L 178.852,-102.772 L 178.586,-102.646
 L 178.333,-102.494 L 178.097,-102.319 L 177.879,-102.121 L 177.681,-101.903 L 177.506,-101.667 L 177.354,-101.414
 L 177.228,-101.148 L 177.129,-100.871 L 177.058,-100.585 L 177.014,-100.294 z
" stroke="black" fill="lightgray" stroke-width="0.5"/>
</svg>
